<svg width="95" height="46" viewBox="0 0 95 46" fill="none" xmlns="http://www.w3.org/2000/svg">
<path fill-rule="evenodd" clip-rule="evenodd" d="M21.3723 0.151237C20.6123 1.36869 20.2395 2.03207 19.6719 3.17658C18.3377 5.86682 17.5937 8.34106 17.219 11.3338C16.9239 13.69 16.9688 16.4776 17.337 18.6725C17.7822 21.3262 18.6739 24.0529 19.8177 26.2585C20.456 27.4891 21.4446 29.0723 21.5383 29.0139C21.5616 28.9995 21.7633 28.7089 21.9866 28.3681C23.5705 25.9517 24.8747 22.6922 25.5026 19.5816C26.0979 16.6322 26.1692 13.7837 25.7209 10.8686C25.1808 7.35762 24.3088 4.79505 22.6534 1.85462C22.4222 1.44398 21.5899 0.0771703 21.5269 0.00466721C21.5067 -0.0185885 21.4371 0.0473678 21.3723 0.151237ZM21.7356 2.67297C22.7574 4.52409 23.7215 6.92881 24.1693 8.74339C24.9129 11.7562 25.1282 14.8548 24.8025 17.8551C24.738 18.4494 24.5462 19.7172 24.5161 19.7487C24.5094 19.7557 24.4903 19.25 24.4734 18.625C24.3807 15.1809 23.8674 12.6373 22.6127 9.40295C22.2627 8.50077 21.5579 7.00898 21.4816 7.00898C21.4075 7.00898 20.7585 8.38669 20.3999 9.30524C19.7415 10.9917 19.1404 13.0799 18.8892 14.5532C18.6871 15.7387 18.5274 17.5553 18.5202 18.7507C18.5182 19.0777 18.5013 19.4442 18.4825 19.5651C18.4511 19.7682 18.4421 19.7402 18.3654 19.1987C18.1593 17.7443 18.0135 15.3317 18.0628 14.1909C18.1408 12.3814 18.4066 10.5061 18.8207 8.8411C19.2292 7.19948 20.3295 4.35984 21.1729 2.77068C21.3191 2.49523 21.4555 2.2699 21.4759 2.2699C21.4963 2.2699 21.6132 2.4513 21.7356 2.67297ZM14.7654 14.1757C13.679 14.2475 12.2372 14.5111 11.2068 14.8266C5.059 16.7084 0.683025 22.0894 0.0484708 28.5477C-0.0260171 29.3059 -0.0125356 30.9956 0.074367 31.7936C0.550974 36.1702 2.78702 40.1267 6.27883 42.7719C8.56507 44.5037 11.1142 45.5308 13.9895 45.8785C14.8032 45.9769 16.6066 45.991 17.3599 45.9049C19.7845 45.6278 21.8965 44.9181 23.8953 43.7089C24.9741 43.0562 25.8484 42.3781 26.7315 41.509L27.3013 40.9482V35.5087V30.0693H21.5547H15.8081V32.5427V35.0162L16.0142 34.8251C16.5012 34.3734 17.221 33.9965 17.9235 33.825C18.5198 33.6795 19.3531 33.6797 19.9508 33.8255C22.4825 34.4433 23.9558 37.0611 23.1711 39.5474C22.9166 40.3537 22.3873 41.1203 21.6263 41.785C18.0028 44.9495 12.5803 44.6765 9.3005 41.1643C7.07172 38.7776 6.32122 35.3338 7.35246 32.2259C8.32696 29.2892 10.7286 27.0717 13.7162 26.3501C14.2222 26.2279 15.0569 26.1141 15.4565 26.1129L15.7596 26.1119V20.127V14.142L15.3837 14.1508C15.177 14.1557 14.8988 14.1669 14.7654 14.1757ZM21.7232 17.8905C21.8099 18.0725 21.986 18.5403 22.1145 18.93C22.5575 20.2731 22.7586 21.4861 22.7586 22.8141C22.7585 24.0542 22.5842 25.1594 22.2079 26.3058C22.0179 26.8845 21.6156 27.853 21.5287 27.9407C21.4669 28.0032 21.053 27.1033 20.8336 26.4295C20.396 25.0852 20.248 24.1225 20.2475 22.6186C20.2471 21.3758 20.2901 21.0278 20.5871 19.8733C20.8425 18.8803 21.4109 17.4632 21.5252 17.5343C21.5474 17.5481 21.6364 17.7084 21.7232 17.8905ZM29.3381 38.0329V45.9965H30.9142H32.4903V39.01V32.0235H33.9208H35.3514V31.0464V30.0693H32.3448H29.3381V38.0329ZM37.0746 30.2769C37.0511 30.4474 35.4484 45.9225 35.4484 45.979C35.4484 45.9886 36.1419 45.9965 36.9894 45.9965H38.5305L38.6746 43.8834L38.8188 41.7704H39.5705H40.3222L40.4748 43.8712C40.5588 45.0267 40.6297 45.9775 40.6324 45.9843C40.6454 46.0161 43.6926 45.9919 43.6928 45.9599C43.6934 45.8779 42.0898 30.3749 42.0655 30.228L42.0393 30.0693H39.5713H37.1032L37.0746 30.2769ZM46.6882 30.1452C45.9192 30.333 45.4833 30.7593 45.2169 31.5838C45.1423 31.8146 45.1273 32.0856 45.1105 33.5014L45.091 35.1503H46.671H48.251V33.7547C48.251 32.8484 48.2694 32.3245 48.3034 32.2605C48.3751 32.1257 48.6647 32.0107 48.8367 32.0488C48.9132 32.0657 49.031 32.1456 49.0984 32.2263L49.2209 32.373V34.3132C49.2209 36.2284 49.2195 36.2561 49.1118 36.4702C48.9202 36.851 48.8163 36.8823 47.6812 36.9006L46.6992 36.9164V37.7884V38.6604L47.6085 38.6764C48.4655 38.6915 48.5315 38.6995 48.7577 38.8146C49.2208 39.0503 49.1948 38.9001 49.2102 41.4343L49.2238 43.656L49.0806 43.8002C48.8795 44.0029 48.593 44.0034 48.3928 43.8017L48.251 43.6589V42.0429V40.4268H46.6714H45.0919L45.1104 42.32C45.1305 44.3602 45.1373 44.4197 45.4153 44.9728C45.6653 45.4702 46.2147 45.8439 46.8447 45.9451C47.2328 46.0075 50.2116 46.0126 50.5788 45.9516C51.514 45.7961 52.0989 45.2219 52.2998 44.2621C52.3994 43.7865 52.4055 39.5031 52.3072 39.1322C52.1751 38.6339 51.873 38.2259 51.4896 38.0279C51.2534 37.9059 50.759 37.7902 50.4697 37.7893C50.2976 37.7888 50.2393 37.7701 50.2393 37.7153C50.2393 37.675 50.2557 37.6413 50.2757 37.6405C50.624 37.6261 51.092 37.5188 51.3388 37.3968C51.7143 37.2112 52.0833 36.8147 52.2361 36.4327C52.3461 36.1577 52.3488 36.1114 52.3633 34.1698C52.3797 31.9711 52.3567 31.7249 52.082 31.1616C51.8141 30.6121 51.3699 30.2761 50.7306 30.1396C50.2761 30.0426 47.0905 30.047 46.6882 30.1452ZM54.5069 38.0329V45.9965H56.0586H57.6102L57.6225 39.0222L57.6348 32.048L58.1319 32.034L58.6289 32.0201V39.0083V45.9965H60.205H61.7811V38.0329V30.0693H58.144H54.5069V38.0329ZM63.8664 38.0329V45.9965H65.4424H67.0185V43.285V40.5734L68.0975 40.5726C69.5822 40.5714 70.0182 40.4705 70.5 40.0164C70.7523 39.7786 70.9434 39.4352 71.0781 38.9772C71.1529 38.7227 71.1635 38.3526 71.1775 35.4986C71.1942 32.0783 71.1853 31.9151 70.9476 31.2786C70.8189 30.934 70.464 30.5301 70.128 30.3459C69.6529 30.0853 69.4671 30.071 66.5457 30.0701L63.8664 30.0693V38.0329ZM75.0687 30.103C74.2742 30.2368 73.697 30.7338 73.466 31.4829C73.2806 32.0837 73.2687 32.5365 73.2851 38.3749L73.3008 44.0178L73.4097 44.4078C73.6524 45.2768 74.136 45.749 74.9647 45.926C75.4355 46.0265 78.4482 46.0239 78.9232 45.9225C79.7657 45.7427 80.23 45.2842 80.4844 44.3808C80.5678 44.0844 80.5728 43.7248 80.5728 38.0329C80.5728 32.3409 80.5678 31.9813 80.4844 31.685C80.2353 30.8006 79.7512 30.3097 78.9618 30.1411C78.7079 30.087 78.2411 30.0723 76.9115 30.0768C75.9646 30.08 75.1353 30.0917 75.0687 30.103ZM82.6823 38.0329V45.9965H84.2584H85.8345V40.9887C85.8345 36.5699 85.843 35.9809 85.9072 35.9809C85.9472 35.9809 85.98 35.9997 85.98 36.0227C85.98 36.0457 86.34 38.2827 86.7801 40.9938C87.2202 43.705 87.5803 45.9397 87.5803 45.9599C87.5803 45.98 88.1472 45.9965 88.8402 45.9965H90.1002L90.1241 45.8866C90.1373 45.8261 90.498 43.6221 90.9257 40.9887C91.3534 38.3553 91.7144 36.1513 91.728 36.0908C91.8305 35.6345 91.8478 36.3435 91.8478 40.9887V45.9965H93.4239H95V38.0323V30.0682L92.9524 30.0809L90.9048 30.0937L89.9043 35.5656C89.3539 38.5752 88.8932 41.0815 88.8802 41.1353C88.859 41.2233 88.8535 41.2208 88.8246 41.1108C88.7869 40.9674 86.8044 30.1731 86.8044 30.1112C86.8044 30.0881 85.8769 30.0693 84.7434 30.0693H82.6823V38.0329ZM39.6881 32.3533C39.7254 32.7559 40.2009 39.783 40.2009 39.9307C40.2009 40.0331 40.1838 40.036 39.5705 40.036C39.0023 40.036 38.9401 40.0275 38.9404 39.9505C38.9405 39.9035 39.0604 38.1172 39.2068 35.9809C39.3531 33.8447 39.473 32.0803 39.4732 32.0602C39.4734 32.04 39.5149 32.0235 39.5656 32.0235C39.6439 32.0235 39.6622 32.0728 39.6881 32.3533ZM67.6763 32.095C67.7985 32.1464 67.8725 32.2252 67.9404 32.3759C68.0304 32.5757 68.0348 32.7173 68.0358 35.4328C68.037 38.5227 68.0392 38.4949 67.7695 38.7087C67.6642 38.7921 67.5704 38.8146 67.3272 38.8146H67.0185V35.4516C67.0185 33.602 67.0331 32.074 67.0509 32.0561C67.1091 31.9975 67.5028 32.022 67.6763 32.095ZM77.1915 32.1214C77.2788 32.1751 77.3716 32.2754 77.3976 32.3443C77.4273 32.423 77.4449 34.5313 77.4449 38.0163C77.4449 43.1037 77.4382 43.5744 77.3641 43.7007C77.201 43.9789 76.8569 44.025 76.6091 43.802L76.4508 43.6594V37.9932C76.4508 32.3957 76.4519 32.3256 76.5477 32.2183C76.7362 32.0073 76.9527 31.9747 77.1915 32.1214Z" fill="#0079C2"/>
</svg>
