<svg width="143" height="45" viewBox="0 0 143 45" fill="none" xmlns="http://www.w3.org/2000/svg">
<path fill-rule="evenodd" clip-rule="evenodd" d="M8.34308 18.0546C5.56449 18.4898 3.12554 20.0055 1.68475 22.1925C0.0433565 24.6841 -0.421639 27.8787 0.390931 31.0819C1.20312 34.2838 3.48487 36.6607 6.50577 37.4519C8.7137 38.0302 11.296 37.8901 13.3127 37.0826C14.2604 36.7031 15.2673 36.139 15.2673 35.9875C15.2673 35.8843 14.3253 33.2561 14.2596 33.176C14.246 33.1594 13.9616 33.2839 13.6276 33.4525C9.54511 35.5148 5.84408 34.0594 4.73328 29.9551C4.42586 28.819 4.42644 26.5414 4.73442 25.461C5.08296 24.2386 5.4749 23.5337 6.2278 22.7749C7.40793 21.5854 8.68655 21.1485 10.7254 21.2379C12.0373 21.2954 12.6932 21.4517 13.8091 21.9727L14.598 22.3409V20.5401V18.7393L13.9048 18.4916C13.5234 18.3554 13.0179 18.1976 12.7812 18.141C12.2091 18.004 9.05736 17.9428 8.34308 18.0546ZM123.269 23.5385L121.452 24.0375L121.428 30.7972L121.403 37.5568H124.262C127.373 37.5568 128.688 37.4649 129.867 37.1649C132.341 36.5355 133.644 35.0053 133.644 32.728C133.644 30.9598 132.843 29.6507 131.301 28.8981C130.118 28.3209 128.8 28.0927 126.64 28.0913L125.42 28.0905V25.5566C125.42 23.2039 125.408 23.0233 125.253 23.031C125.161 23.0356 124.268 23.264 123.269 23.5385ZM20.2163 23.4084C17.7165 23.8293 15.906 25.5908 15.1586 28.3296C14.9878 28.9551 14.9486 29.3645 14.9434 30.5766C14.9357 32.3274 15.0613 32.932 15.7158 34.2972C16.5361 36.0084 18.0441 37.177 20.0005 37.6175C20.9701 37.8359 22.9501 37.8368 23.9341 37.6192C25.0996 37.3615 26.429 36.8396 27.1907 36.3404L27.401 36.2026L26.9732 34.9968C26.738 34.3335 26.5259 33.7713 26.5021 33.7475C26.4783 33.7236 26.2105 33.8142 25.907 33.9487C23.4085 35.056 20.9583 34.8841 19.6943 33.5129C19.2012 32.9779 19.0097 32.612 18.934 32.0603L18.8748 31.6284H23.3819H27.889V30.8849C27.889 28.3319 27.2533 26.5047 25.8821 25.1164C25.318 24.5452 24.9895 24.3049 24.3511 23.9959C23.0948 23.3879 21.5999 23.1755 20.2163 23.4084ZM47.3475 23.4528C46.9794 23.5289 46.3139 23.7712 45.8687 23.9911C43.3988 25.2114 41.9925 28.2228 42.3347 31.558C42.6328 34.4632 44.148 36.5425 46.5771 37.3797C48.7093 38.1147 51.5148 37.8804 53.7692 36.7789C54.2016 36.5677 54.6014 36.3395 54.6575 36.2718C54.7324 36.1816 54.6551 35.8444 54.3691 35.0121C54.1543 34.3869 53.9476 33.8433 53.9097 33.8041C53.8719 33.7649 53.4771 33.8804 53.0324 34.0608C50.4396 35.1127 48.0297 34.8018 46.8555 33.264C46.5248 32.831 46.1861 31.9013 46.2949 31.7253C46.3339 31.6621 47.9036 31.6284 50.8073 31.6284H55.2598L55.2101 30.218C55.155 28.6576 55.0088 27.9515 54.5218 26.8953C53.9513 25.6581 52.9148 24.5496 51.7963 23.9807C50.6636 23.4045 48.7045 23.1721 47.3475 23.4528ZM62.7683 23.4518C62.1408 23.6112 61.5297 23.9048 60.7963 24.399C60.5149 24.5887 60.2496 24.7438 60.2066 24.7438C60.1637 24.7438 60.0462 24.4965 59.9454 24.194L59.7622 23.6442L58.0729 23.6181L56.3835 23.592V33.9637V44.3354L56.8377 44.1984C57.0874 44.123 57.9803 43.8515 58.8218 43.5948L60.3517 43.1282L60.3769 40.2144L60.4022 37.3005L60.9258 37.4773C63.1643 38.233 65.6337 37.7132 67.3085 36.1339C68.3576 35.1445 69.0006 33.9714 69.4096 32.3013C69.6917 31.149 69.6911 29.1412 69.4082 27.9856C68.702 25.1008 66.8741 23.4669 64.2243 23.352C63.6219 23.3259 63.1314 23.3595 62.7683 23.4518ZM76.2244 23.4441C73.0745 24.0595 70.9894 26.3824 70.6337 29.6723C70.4414 31.4504 70.8425 33.471 71.6567 34.8265C72.4426 36.1348 73.8247 37.1529 75.383 37.5711C76.4941 37.8694 78.1189 37.8524 79.3434 37.5296C80.2647 37.2869 81.6413 36.7139 81.7583 36.5244C81.8089 36.4426 81.0221 34.0659 80.9006 33.9332C80.8816 33.9124 80.6177 34.0058 80.3142 34.1408C78.9289 34.7568 77.6889 34.8503 76.7025 34.4131C76.1159 34.1531 75.3759 33.4492 75.0776 32.8673C74.2641 31.2809 74.3268 29.1503 75.2255 27.844C76.3208 26.2521 78.445 25.8379 80.4078 26.8335L81.1488 27.2094V25.6365V24.0638L80.6951 23.8631C79.9081 23.515 79.3193 23.4004 78.089 23.3562C77.2993 23.3278 76.6667 23.3577 76.2244 23.4441ZM97.8733 23.4496C96.6801 23.6451 95.4759 24.0794 94.5592 24.645L94.2483 24.8369L94.845 26.0349C95.1733 26.6937 95.4853 27.2131 95.5384 27.189C96.9097 26.5667 97.7993 26.3441 98.934 26.3392C99.9103 26.3349 100.54 26.5253 101.025 26.9717C101.334 27.2557 101.607 27.8713 101.609 28.2906L101.611 28.6341L99.9141 28.6962C97.1022 28.799 95.5626 29.2652 94.4931 30.3376C92.9131 31.9219 92.9301 34.7508 94.5298 36.4423C95.4125 37.3755 96.488 37.7884 98.0256 37.784C99.3565 37.7803 100.657 37.3563 101.491 36.6542C101.651 36.5195 101.822 36.4094 101.87 36.4094C101.919 36.4094 102.082 36.6675 102.233 36.9831L102.507 37.5568H104.072H105.638L105.606 32.3217C105.575 27.1969 105.57 27.073 105.36 26.4483C104.987 25.3372 104.259 24.4546 103.318 23.9724C103.126 23.8742 102.653 23.7033 102.266 23.5927C101.341 23.3281 99.0673 23.254 97.8733 23.4496ZM29.1321 30.5766V37.5568L32.407 37.556C34.2082 37.5556 36.0692 37.5115 36.5426 37.4581C38.9141 37.1904 40.5021 36.3116 41.1616 34.902C41.3911 34.4116 41.4183 34.2424 41.4187 33.3017C41.4191 32.1769 41.3412 31.869 40.8862 31.1981C40.574 30.7377 39.7755 30.2373 39.0954 30.0758C38.822 30.0107 38.5984 29.9282 38.5984 29.8924C38.5984 29.8564 38.8229 29.7525 39.0973 29.6613C39.7994 29.4281 40.538 28.6783 40.7419 27.9916C40.9532 27.2802 40.9354 26.3936 40.697 25.7565C40.4445 25.0815 39.6837 24.3646 38.9088 24.0713C37.8107 23.6557 37.1575 23.6033 33.0286 23.5998L29.1321 23.5964V30.5766ZM81.9138 25.1741V26.7518H83.874H85.8342V32.1543V37.5568H87.7943H89.7545V32.1543V26.7518H91.5167H93.2789L93.4222 26.2498C93.501 25.9738 93.6813 25.3185 93.8228 24.7938C93.9644 24.269 94.1011 23.785 94.1268 23.718C94.1643 23.6204 92.9647 23.5964 88.0436 23.5964H81.9138V25.1741ZM108.972 26.2498C108.97 31.0136 108.685 32.8771 107.809 33.8726C107.439 34.2936 106.655 34.7838 106.353 34.7838C106.276 34.7838 106.189 34.8216 106.16 34.8678C106.132 34.914 106.352 35.603 106.649 36.3989L107.19 37.8461L107.532 37.7922C109.525 37.4778 110.912 36.4299 111.704 34.6396C112.212 33.4889 112.481 31.6576 112.575 28.6881L112.637 26.7518H114.2H115.763V32.1543V37.5568H117.723H119.683V30.5766V23.5964H114.329H108.974L108.972 26.2498ZM22.472 26.5443C22.7337 26.6844 23.0512 26.9606 23.2012 27.1785C23.4975 27.6092 23.7774 28.3559 23.7774 28.7154V28.9511H21.2913H18.8052V28.6812C18.8052 27.9623 19.4959 26.8478 20.1517 26.5088C20.8848 26.1297 21.7215 26.1425 22.472 26.5443ZM49.6902 26.4311C49.8742 26.5076 50.161 26.702 50.3274 26.8631C50.6751 27.1997 51.0943 28.0788 51.1406 28.5686L51.1723 28.9033L48.7077 28.9288C46.6161 28.9504 46.235 28.9331 46.1895 28.8143C46.103 28.5893 46.4102 27.6811 46.715 27.2603C47.4148 26.2942 48.58 25.9695 49.6902 26.4311ZM64.2243 26.4688C65.2749 27.0023 65.7398 28.3453 65.6296 30.5288C65.4962 33.1707 64.4462 34.6181 62.4382 34.9279C62.0003 34.9955 60.9807 34.7778 60.616 34.5388L60.3995 34.397V31.0674V27.7379L60.8057 27.3356C61.8465 26.3052 63.2174 25.9575 64.2243 26.4688ZM36.06 26.3798C36.2678 26.4375 36.5799 26.6266 36.7532 26.7999C37.0134 27.0601 37.0684 27.1879 37.0681 27.5311C37.0677 28.0575 36.8091 28.4885 36.368 28.6977C35.9653 28.8888 34.9058 29.0396 33.9369 29.0437L33.2437 29.0467V27.6602V26.2738L34.4628 26.2743C35.1334 26.2746 35.8521 26.322 36.06 26.3798ZM127.7 30.955C128.477 31.0673 129.139 31.398 129.412 31.8099C129.579 32.0619 129.628 32.272 129.628 32.746C129.628 34.2182 128.737 34.7838 126.42 34.7838H125.42V32.8237V30.8635L126.257 30.8654C126.717 30.8664 127.366 30.9068 127.7 30.955ZM101.611 32.6855V34.1251L101.061 34.3777C100.414 34.6752 99.0955 34.788 98.5126 34.5956C97.7535 34.345 97.3084 33.7502 97.3084 32.986C97.3084 31.7831 98.286 31.2958 100.775 31.2585L101.611 31.2459V32.6855ZM35.576 31.5362C36.7748 31.7095 37.2774 32.0541 37.4505 32.8215C37.57 33.3514 37.4126 33.8313 36.99 34.2262C36.4752 34.7072 36.0901 34.8047 34.5107 34.8545L33.1481 34.8974V33.1673V31.4372L34.0326 31.4391C34.519 31.4401 35.2136 31.4838 35.576 31.5362Z" fill="#005EA3"/>
<path d="M122.774 5.59595C123.892 3.70967 128.023 1.61322 132.704 0.556633C133.737 0.323418 133.894 0.32294 134.264 0.551661C135.109 1.07384 135.652 2.71867 135.651 4.75679L135.651 5.3808L134.301 5.64701C131.786 6.14308 128.862 7.27043 127.15 8.40409C126.322 8.95236 125.355 9.87232 125.108 10.3466C124.996 10.5605 124.857 10.9673 124.799 11.2509L124.692 11.7661L124.141 10.9162C122.559 8.47762 122.108 6.72081 122.774 5.59595Z" fill="#E12428"/>
<path d="M125.708 12.6325C125.71 11.4798 126.788 10.2507 128.809 9.09551C129.169 8.88973 129.206 8.88524 129.317 9.0346C129.784 9.66138 131.23 11.1844 132.074 11.9377C133.828 13.505 135.628 14.6675 137.181 15.2363C138.086 15.5675 139.245 15.6149 139.748 15.3413C139.924 15.2458 140.088 15.1875 140.112 15.2118C140.178 15.2777 139.291 16.945 138.755 17.7638C138.194 18.6205 137.451 19.3918 136.933 19.6562C136.053 20.1051 134.929 19.9802 133.425 19.2666C131.349 18.2816 129.601 16.9774 127.357 14.7398L125.707 13.0952L125.708 12.6325Z" fill="#B4B4B4"/>
<path d="M136.001 0.0669679L135.346 0.121757L135.763 0.414351C136.038 0.607597 136.28 0.899713 136.477 1.27492C136.966 2.20443 137.038 2.6766 137.036 4.90271C137.034 6.59918 137 7.08129 136.816 8.01033C136.55 9.35291 136.134 10.887 135.748 11.9431C135.59 12.3778 135.492 12.764 135.532 12.8014C135.725 12.9837 136.96 13.594 137.672 13.8591C139.094 14.388 140.446 14.2543 140.784 13.5514C140.976 13.1518 141.549 11.1716 141.806 10.0183C142.173 8.36851 142.345 6.82656 142.341 5.20859C142.333 1.4696 141.558 0.374 138.711 0.076529C137.762 -0.0226279 137.098 -0.0250175 136.001 0.0669679Z" fill="#005EA3"/>
</svg>
