<svg width="110" height="50" viewBox="0 0 110 50" fill="none" xmlns="http://www.w3.org/2000/svg">
<path fill-rule="evenodd" clip-rule="evenodd" d="M81.5672 0.0539035C80.714 0.181238 80.1593 0.457579 79.5922 1.03776C79.2798 1.3575 79.1305 1.56344 78.9897 1.8691C78.649 2.6089 78.625 2.77139 78.598 4.51683L78.5735 6.0982L86.4068 6.09864C91.4299 6.09892 94.4134 6.11943 94.7234 6.15579C96.4987 6.36387 97.4595 7.16693 97.8789 8.79341L97.9995 9.26094V18.3641V27.4673L97.8789 27.9349C97.4872 29.4539 96.6389 30.2314 95.0456 30.5317C94.757 30.5861 93.5591 30.6026 89.8897 30.6026C85.4872 30.6026 85.0737 30.5948 84.6533 30.5033C83.4755 30.2473 82.8361 29.6213 82.6564 28.5486C82.6016 28.2208 82.6053 28.098 82.6812 27.7325C82.8684 26.8314 82.8856 26.806 88.3936 19.2976C91.2104 15.4579 93.5149 12.3034 93.5149 12.2875C93.5149 12.2717 90.1496 12.2594 86.0362 12.2603L78.5575 12.2619L75.2743 16.7569C71.8318 21.47 71.5207 21.9181 71.174 22.6628C70.8511 23.3564 70.7717 23.7243 70.7719 24.5246C70.7721 25.0887 70.7946 25.2858 70.8967 25.622C71.1897 26.5858 71.5309 27.1259 73.748 30.135C75.98 33.1644 76.778 34.0883 77.9256 34.9718C79.362 36.0777 80.7752 36.5217 83.3643 36.6803C84.5157 36.7508 94.9772 36.7503 96.2003 36.6796C98.5532 36.5438 100.283 36.2344 101.887 35.6625C106.789 33.915 109.537 29.7332 109.948 23.397C110.018 22.322 110.017 14.3999 109.948 13.3313C109.784 10.8302 109.288 8.7516 108.423 6.95077C107.251 4.50792 105.598 2.81968 103.23 1.64666C101.302 0.691677 99.1991 0.215341 96.1734 0.0482381C94.9836 -0.0174919 82.0118 -0.0124315 81.5672 0.0539035ZM2.77682 12.3394C1.69704 12.5468 0.847283 13.1804 0.412417 14.1021C0.0890464 14.7875 0.0539219 15.0309 0.0256183 16.7828L0 18.3641H2.98622H5.97239V33.6828V49.0015H11.9607H17.9491V33.6809V18.3604L24.5416 18.377L31.1342 18.3935L31.5544 18.5151C32.1269 18.6808 32.4596 18.8782 32.7988 19.2534C33.1515 19.6436 33.3137 20.0491 33.3501 20.6315C33.3723 20.9865 33.3536 21.1309 33.2361 21.5115C33.1589 21.762 32.9959 22.15 32.874 22.3738C32.7521 22.5976 30.3762 25.8896 27.5941 29.6894C24.8121 33.4891 22.5175 36.629 22.495 36.6668C22.4623 36.7217 23.964 36.7351 29.936 36.7333L37.4179 36.731L40.7885 32.1204C42.6423 29.5845 44.2938 27.2809 44.4585 27.0012C45.0198 26.0475 45.176 25.565 45.2164 24.6604C45.2413 24.0995 45.2284 23.9276 45.1314 23.5328C44.894 22.5676 44.5528 22.0037 42.5197 19.2172C40.7189 16.749 40.0596 15.9203 39.1931 15.0364C37.5481 13.3582 36.2667 12.7292 33.7927 12.3857C33.177 12.3001 31.8789 12.2914 18.137 12.2798C5.94951 12.2695 3.08257 12.2806 2.77682 12.3394ZM50.4151 24.4695C45.4968 31.1854 41.4728 36.6927 41.4728 36.7079C41.4728 36.7231 44.8321 36.7355 48.938 36.7355H56.4031L65.3455 24.5247C70.2638 17.8088 74.2878 12.3015 74.2878 12.2863C74.2878 12.2711 70.9285 12.2587 66.8226 12.2587H59.3575L50.4151 24.4695Z" fill="#C5161D"/>
</svg>
