<svg width="137" height="25" viewBox="0 0 137 25" fill="none" xmlns="http://www.w3.org/2000/svg">
<path fill-rule="evenodd" clip-rule="evenodd" d="M45.0748 0.0363962C43.6376 0.0844141 42.182 0.200263 40.975 0.362723C40.0659 0.485122 39.8376 0.571197 39.7339 0.830829C39.6785 0.969361 35.8706 23.314 35.8706 23.5002C35.8706 23.5472 35.9306 23.6453 36.0039 23.7184L36.1372 23.8513H38.8574C41.8573 23.8513 41.8078 23.8567 41.9663 23.5153C42.0118 23.4173 42.3084 21.8023 42.6254 19.9265C42.9425 18.0507 43.2294 16.3604 43.2631 16.1701L43.3243 15.8243L43.928 15.8596C44.6367 15.9011 46.1545 15.8227 46.955 15.7033C49.7949 15.2796 52.1717 14.1148 53.6713 12.4119C55.2729 10.5932 56.2108 7.89552 56.015 5.67111C55.8072 3.30995 54.4951 1.5688 52.3032 0.745783C50.5576 0.0903149 48.7554 -0.0865447 45.0748 0.0363962ZM1.18577 0.17823C1.11887 0.191114 0.993381 0.272101 0.907041 0.35823C0.727193 0.537471 0.75429 0.412635 0.271004 3.29051C-0.00593574 4.93942 -0.0355846 5.18524 0.0282744 5.30418C0.0682948 5.37867 0.140299 5.45917 0.18841 5.48309C0.236468 5.50702 1.55959 5.53875 3.12869 5.55363L5.98155 5.5807L4.47538 14.4318C3.647 19.2999 2.96801 23.3466 2.96649 23.4245C2.96497 23.5023 3.01439 23.6302 3.07629 23.7087L3.1888 23.8513L5.96786 23.8511C8.59091 23.8509 8.75626 23.8452 8.91412 23.7493C9.0061 23.6933 9.10857 23.5777 9.14186 23.4923C9.19388 23.3589 12.195 5.78695 12.195 5.61583C12.195 5.56982 12.8808 5.55363 14.8287 5.55363C16.2772 5.55363 17.4623 5.57193 17.4621 5.59423C17.462 5.61654 17.1566 7.43412 16.7833 9.63326C16.4101 11.8323 16.0668 13.903 16.0204 14.2347C15.9017 15.0843 15.8575 16.9217 15.9373 17.6843C16.4063 22.1636 19.2812 24.3779 24.4129 24.2124C25.5343 24.1762 26.2401 24.0852 27.2221 23.8503C31.5123 22.8239 34.44 19.5205 35.5694 14.4318C35.7267 13.7233 37.935 0.766192 37.9324 0.56757C37.9301 0.398993 37.8261 0.266525 37.641 0.196366C37.5459 0.160312 36.5636 0.140173 34.9032 0.140227C32.5453 0.140282 32.2972 0.148727 32.1277 0.234964C32.0252 0.286988 31.898 0.390494 31.8448 0.46493C31.7731 0.565351 31.4599 2.30293 30.6298 7.20475C29.3847 14.558 29.3672 14.6521 29.0989 15.4841C28.5068 17.3201 27.6177 18.399 26.3284 18.846C25.5116 19.1291 24.4516 19.1231 23.7153 18.8312C23.0256 18.5579 22.508 17.8874 22.2622 16.9491C22.1403 16.4839 22.1239 14.9166 22.2339 14.2423C22.2727 14.0041 22.8033 10.8691 23.413 7.27556C24.0227 3.68207 24.5215 0.678006 24.5215 0.599889C24.5215 0.390061 24.4362 0.267066 24.2445 0.200426C24.1226 0.158092 20.82 0.143042 12.6906 0.147915C6.42992 0.151704 1.25273 0.165292 1.18577 0.17823ZM81.3438 0.217045C81.0058 0.363751 80.9859 0.426819 80.6465 2.42879L80.3295 4.29797L80.5281 4.75882C80.9109 5.64756 81.1873 6.63244 81.3284 7.61077C81.4472 8.43476 81.4219 10.445 81.2813 11.3468C80.8236 14.2828 79.7843 16.8707 78.2659 18.8554C78.0498 19.1378 77.8433 19.4095 77.807 19.4591C77.7487 19.5387 77.0864 23.2397 77.0859 23.4883C77.0858 23.5418 77.1457 23.6453 77.219 23.7184L77.3523 23.8513H84.6542H91.9561L92.1203 23.7136C92.2106 23.6379 92.2973 23.5343 92.3131 23.4835C92.3977 23.2111 93.1003 18.8881 93.0736 18.8042C93.0562 18.7495 92.9904 18.6569 92.9274 18.5984C92.8154 18.4944 92.7129 18.4919 88.4778 18.4919H84.1429L84.1708 18.3701C84.1862 18.3031 84.8737 14.2654 85.6986 9.39744C87.0519 1.41208 87.1912 0.533411 87.1227 0.411769C86.9712 0.142718 86.9593 0.141635 84.145 0.143042C82.0623 0.144071 81.4763 0.159554 81.3438 0.217045ZM98.2685 0.21082C97.879 0.346915 98.0262 -0.3923 95.9189 12.0092C93.8542 24.1599 93.9278 23.6569 94.1946 23.7992C94.2558 23.8318 97.0592 23.8513 101.694 23.8511C108.841 23.8509 109.102 23.8474 109.264 23.7493C109.356 23.6933 109.459 23.5777 109.493 23.4923C109.561 23.32 110.264 19.2348 110.264 19.0086C110.264 18.9293 110.205 18.8069 110.131 18.7331L109.998 18.6002H105.511H101.024L101.054 18.4513C101.071 18.3695 101.232 17.4255 101.413 16.3536C101.593 15.2817 101.752 14.3743 101.765 14.3371C101.784 14.2837 102.641 14.2694 105.802 14.2694C109.71 14.2694 109.819 14.2666 109.951 14.163C110.025 14.1044 110.114 13.9887 110.146 13.9058C110.207 13.7539 110.916 9.64343 110.916 9.44497C110.916 9.38624 110.856 9.2784 110.782 9.20532L110.649 9.07242H106.656C104.459 9.07242 102.662 9.05455 102.662 9.03268C102.662 8.98585 103.193 5.81137 103.237 5.59532L103.267 5.44753L107.06 5.43291C110.79 5.41857 110.856 5.41645 111.003 5.30716C111.124 5.21664 111.317 4.78004 112.039 2.95401C112.526 1.72086 112.925 0.654782 112.925 0.584893C112.925 0.389466 112.835 0.265604 112.646 0.199938C112.391 0.111157 98.5238 0.121659 98.2685 0.21082ZM114.638 0.179584C114.45 0.227114 114.294 0.35823 114.207 0.541639C114.125 0.712923 114.191 1.17621 115.803 11.8121C116.727 17.9126 117.512 23.071 117.545 23.2753C117.65 23.9062 117.32 23.8514 121.002 23.8511C124.005 23.8509 124.202 23.845 124.355 23.7513C124.492 23.6675 125.444 21.8282 130.326 12.2093C134.554 3.87864 136.134 0.718228 136.134 0.587708C136.134 0.474458 136.089 0.363914 136.013 0.2878L135.892 0.167187L133.083 0.15073C131.255 0.140011 130.207 0.15387 130.081 0.190411C129.975 0.221322 129.838 0.301767 129.777 0.369273C129.662 0.49622 125.138 10.1049 124.111 12.4017C123.792 13.1163 123.313 14.2184 123.047 14.8509C122.781 15.4833 122.559 15.9827 122.553 15.9607C122.547 15.9386 122.503 15.3968 122.455 14.7566C122.332 13.1288 122.187 11.7982 121.475 5.77017C121.131 2.86718 120.823 0.43835 120.79 0.372792C120.756 0.307234 120.655 0.228035 120.566 0.196853C120.401 0.13974 114.859 0.123608 114.638 0.179584ZM47.8985 5.04233C48.4464 5.15292 49.0062 5.44433 49.3032 5.77364C49.6541 6.16282 49.787 6.54371 49.7836 7.15062C49.7757 8.53951 49.034 9.73877 47.8118 10.3386C47.0065 10.7339 46.6174 10.8141 45.3554 10.8452C44.7143 10.861 44.2578 10.851 44.2273 10.8206C44.1813 10.7747 45.1092 5.09532 45.1731 5.03155C45.1861 5.01862 45.4747 4.98678 45.8145 4.9608C46.5507 4.90444 47.3752 4.93671 47.8985 5.04233Z" fill="#27387E"/>
<path d="M68.6244 0.0499441C68.5207 0.0619223 68.2072 0.0979368 67.9251 0.130331L67.9185 0.131093C65.8795 0.365065 63.7915 1.12642 62.0268 2.27939C58.8651 4.34503 56.8711 7.49141 56.0059 11.7797C55.8576 12.5149 55.6791 13.8193 55.7211 13.8611C55.8173 13.9571 58.0753 13.0648 59.3883 12.4119C64.2171 10.011 68.4274 6.19753 71.8158 1.15598L72.3791 0.317859L72.2258 0.279477C71.5501 0.110251 69.3295 -0.0313127 68.6244 0.0499441Z" fill="#ED2B28"/>
<path d="M74.28 1.16903C72.0711 5.99317 70.9663 9.61622 70.4959 13.5791C70.3769 14.5818 70.3279 17.3822 70.4117 18.3973C70.5359 19.9016 70.8004 21.3651 71.182 22.6599L71.2896 23.025L71.5997 22.868C73.1181 22.099 74.7865 20.7837 75.8541 19.514C77.559 17.4863 78.707 14.6833 79.1383 11.4949C79.2523 10.6525 79.2676 8.76435 79.1664 8.03022C78.8721 5.89427 78.161 4.20308 76.9936 2.8621C76.4336 2.21892 75.5026 1.50347 74.695 1.09578L74.3852 0.93933L74.28 1.16903Z" fill="#27387E"/>
<path d="M56.5332 17.281C56.1996 17.2993 55.913 17.3281 55.8963 17.3448C55.8577 17.3834 56.0812 18.217 56.2728 18.749C57.3868 21.8426 60.2034 23.921 63.8988 24.3765C64.4866 24.4489 66.0736 24.4497 66.671 24.3778C67.2785 24.3048 68.3129 24.1124 68.4057 24.0551C68.4638 24.0194 68.4155 23.88 68.1773 23.3959C66.898 20.7966 64.6095 18.8248 61.8096 17.9092C60.2993 17.4153 58.3368 17.1817 56.5332 17.281Z" fill="#515E66"/>
</svg>
