<svg width="100" height="53" viewBox="0 0 100 53" fill="none" xmlns="http://www.w3.org/2000/svg">
<path fill-rule="evenodd" clip-rule="evenodd" d="M46.3741 0.0269179C45.9959 0.0525419 44.7582 0.132914 43.6235 0.205661C38.7633 0.517274 33.5362 1.32149 28.933 2.46595C12.6007 6.52666 1.60862 14.9223 0.180699 24.427C-0.062602 26.0465 -0.0606016 27.042 0.189076 28.6242C1.24592 35.3201 6.82947 41.4152 16.0553 45.9439C23.7898 49.7406 32.9391 52.0314 43.6235 52.8463C46.3 53.0504 53.736 53.0514 56.3762 52.848C69.7932 51.8139 81.3226 48.314 89.3206 42.8472C95.4844 38.6341 98.9785 33.8967 99.8107 28.6242C100.059 27.0504 100.062 26.0466 99.8244 24.4625C98.9154 18.4116 94.2827 12.8705 86.3296 8.32172C78.7458 3.98414 68.1674 1.09225 56.6263 0.201786C54.893 0.0680413 47.6036 -0.0563288 46.3741 0.0269179ZM57.8765 2.50382C68.9466 3.56165 78.673 6.42954 85.7792 10.731C95.7986 16.7958 99.4135 24.9589 95.5092 32.703C92.5922 38.4889 85.3813 43.6243 75.5052 46.9496C64.4155 50.6834 50.638 51.7934 37.6848 49.9963C28.7856 48.7617 20.3009 45.9777 14.2205 42.2972C4.18154 36.2206 0.571281 28.0434 4.51198 20.3071C6.75395 15.9055 11.0987 12.1252 17.6181 8.90369C25.1293 5.19209 34.8099 2.87156 45.2489 2.28033C47.2986 2.16421 55.9195 2.31683 57.8765 2.50382ZM45.887 4.58949C35.6821 5.05422 25.8787 7.377 18.5957 11.0557C12.9104 13.9275 8.9219 17.499 7.04764 21.3966C6.12494 23.3154 5.92865 24.2033 5.93015 26.4516C5.93153 28.5518 6.07168 29.3271 6.75257 31.0004C8.74637 35.9008 14.5059 40.5692 22.3979 43.6817C33.0616 47.8873 46.5189 49.4572 59.4791 48.0074C78.2832 45.9039 92.1692 38.099 93.9526 28.6313C94.2328 27.1437 94.146 24.7838 93.7623 23.4546C92.4141 18.7856 88.0652 14.4204 81.4152 11.0614C72.0853 6.34867 59.1199 3.98689 45.887 4.58949ZM54.9384 5.07597C70.0711 6.00393 82.7584 10.4715 89.3831 17.2052C97.945 25.908 93.4679 36.4597 78.5115 42.827C61.9538 49.8761 37.7306 49.8305 21.2504 42.719C14.5073 39.8093 9.66093 35.8873 7.57275 31.6499C6.85272 30.1889 6.54028 29.1468 6.37337 27.6503C5.11873 16.4019 21.9459 6.50791 44.7488 5.08659C47.0694 4.94185 52.6567 4.9361 54.9384 5.07597ZM14.9926 26.3266V34.7013H17.4306H19.8686V31.3889V28.0766H22.6191H25.3697V31.3889V34.7013H27.8077H30.2457V26.3266V17.952H27.8077H25.3697V21.0168V24.0816L22.6504 24.048L19.9311 24.0142L19.8976 20.9831L19.8641 17.952H17.4283H14.9926V26.3266ZM35.2443 22.9205C35.241 29.5019 35.1478 30.0804 33.9937 30.6796C33.5231 30.9241 33.3095 30.9596 32.6525 30.9031L31.8711 30.8358V32.8136V34.7914L32.5275 34.8703C33.666 35.007 35.4043 34.9547 36.2361 34.7587C37.7966 34.3909 38.6863 33.6808 39.4323 32.2076C40.0032 31.0803 40.1137 30.0485 40.1184 25.7954L40.1228 21.9518H41.6856H43.2485V28.3266V34.7013H45.6865H48.1245V26.3266V17.952H41.6856H35.2468L35.2443 22.9205ZM52.5004 18.0203C52.5004 18.0935 52.1436 20.5522 50.8171 29.6209C50.4363 32.2234 50.1249 34.4311 50.1249 34.5269C50.1249 34.6698 50.5425 34.7013 52.4355 34.7013C54.7295 34.7013 54.7466 34.6993 54.8098 34.4201C54.8606 34.1956 55.4421 29.6742 55.8386 26.4204C55.8784 26.0938 55.9455 25.8267 55.9878 25.8267C56.0299 25.8267 56.5648 27.5563 57.1763 29.6702C57.7878 31.7842 58.367 33.7826 58.4633 34.1112L58.6386 34.7084L60.2829 34.6737L61.9274 34.6388L63.0887 30.639C63.7275 28.439 64.3108 26.4225 64.3848 26.1578C64.4588 25.893 64.5387 25.6962 64.5624 25.7203C64.5861 25.7444 64.836 27.5641 65.1178 29.764C65.3997 31.9639 65.6629 33.9748 65.7027 34.2326L65.7752 34.7013H68.1212H70.4672L70.1137 32.2951C69.7715 29.9655 69.2685 26.519 68.4948 21.2018C68.2897 19.7925 68.0908 18.4847 68.0528 18.2957L67.9838 17.952H65.5605H63.1373L62.9622 18.5457C62.866 18.8723 62.2343 21.0647 61.5587 23.4179C60.8829 25.771 60.2985 27.6661 60.2598 27.6292C60.2211 27.5922 59.5676 25.4138 58.8075 22.7883L57.4254 18.0145L54.9629 17.9806C53.6085 17.962 52.5004 17.9798 52.5004 18.0203ZM72.3796 26.3266V34.7013H74.8156H77.2516L77.2848 31.3146L77.3181 27.9278L78.1136 29.0959C78.5511 29.7384 79.5811 31.2624 80.4023 32.4826L81.8953 34.7013H84.8891C86.5357 34.7013 87.8828 34.6628 87.8828 34.6156C87.8828 34.5684 87.7787 34.4138 87.6514 34.2718C87.4582 34.0566 81.9472 26.7926 81.5742 26.2618C81.4927 26.1456 81.5164 26.0191 81.6484 25.8653C82.1695 25.2579 87.7578 18.0843 87.7578 18.0228C87.7578 17.9838 86.497 17.952 84.9562 17.952H82.1546L79.7989 21.2576C78.5032 23.0756 77.401 24.5662 77.3494 24.57C77.2977 24.5737 77.2556 23.0861 77.2556 21.2643V17.952H74.8176H72.3796V26.3266Z" fill="#015291"/>
</svg>
