<svg width="137" height="30" viewBox="0 0 137 30" fill="none" xmlns="http://www.w3.org/2000/svg">
<path fill-rule="evenodd" clip-rule="evenodd" d="M50.8419 9.93841C49.9545 11.5053 48.2041 14.5904 46.9524 16.7942C42.3476 24.9015 41.875 25.7404 41.875 25.8089C41.875 25.8474 42.7599 25.8633 43.8414 25.8443L45.8078 25.8098L46.5182 24.5576L47.2285 23.3055L52.4375 23.2728L57.6465 23.2401L57.8894 23.5858C58.0228 23.776 58.3706 24.3682 58.6621 24.902L59.1921 25.8724H62.627H66.0621V18.2968V10.7211H70.2604H74.4587V18.2989V25.8768L77.5506 25.8433L80.6426 25.8098L81.3638 24.5576L82.085 23.3055L87.2491 23.2728C90.9489 23.2494 92.4617 23.2802 92.584 23.3816C92.678 23.4595 93.0408 24.0518 93.3904 24.6978L94.026 25.8724H96.0328H98.0396L97.7931 25.4655C97.6575 25.2416 95.3051 21.086 92.5654 16.2307C89.8258 11.3754 87.5202 7.33352 87.442 7.24862C87.3334 7.13079 86.2062 9.02771 82.665 15.2881C80.116 19.7945 77.9881 23.4843 77.9364 23.4875C77.8846 23.4907 77.8424 19.8307 77.8424 15.3542V7.21506H70.2613H62.68L62.648 16.0608L62.6158 24.9064L61.3533 22.666C55.1921 11.7318 52.7212 7.37947 52.599 7.24624C52.4883 7.12528 52.0873 7.7396 50.8419 9.93841ZM93.0341 8.81158L93.069 10.5333L95.7321 10.5671L98.3951 10.6009V18.2367V25.8724H100.087H101.779V18.2342V10.5959H104.368H106.956L106.884 18.2342C106.844 22.4352 106.836 25.8724 106.866 25.8724C106.896 25.8724 108.821 23.9425 111.144 21.5837C113.467 19.225 116.399 16.2526 117.658 14.9785L119.949 12.662L119.95 19.2672L119.95 25.8724H121.705H123.459V18.2342V10.5959H125.778H128.096V18.2342V25.8724H129.788H131.48V18.2367V10.6008L134.206 10.5671L136.932 10.5333L136.966 8.81158L137.001 7.08984L128.821 7.09173L120.64 7.09347L115.502 12.3743L110.363 17.6551L110.331 12.3725L110.298 7.08984H101.649H92.9993L93.0341 8.81158ZM54.183 16.9553L55.7758 19.7994L52.5663 19.8328C50.8012 19.8512 49.3314 19.8408 49.3002 19.8097C49.2325 19.742 52.4173 14.0999 52.5193 14.1066C52.5582 14.1093 53.3069 15.3912 54.183 16.9553ZM89.0224 16.9553L90.6153 19.7994L87.4058 19.8328C85.6406 19.8512 84.1714 19.8413 84.1408 19.8108C84.0742 19.7443 87.2595 14.1 87.3598 14.1066C87.3982 14.1093 88.1463 15.3912 89.0224 16.9553Z" fill="#50AD25"/>
<path fill-rule="evenodd" clip-rule="evenodd" d="M11.0733 2.87502L9.34402 5.75501H6.09216C4.30369 5.75501 2.84031 5.78907 2.84031 5.83077C2.84031 5.87247 3.40263 6.90613 4.09002 8.12788C4.77741 9.34962 5.37558 10.4425 5.41931 10.5565C5.49187 10.7454 5.25376 10.7637 2.71499 10.7637C0.179733 10.7637 -0.0617611 10.7821 0.0104243 10.9703C0.0770955 11.144 4.75172 19.5536 9.34113 27.7563C10.0041 28.9411 10.587 29.8701 10.6363 29.8208C10.8292 29.628 15.1576 22.7146 15.1592 22.5967C15.1602 22.5279 14.701 21.6651 14.1388 20.6794C13.5766 19.6937 13.1167 18.8626 13.1167 18.8324C13.1167 18.8023 13.96 18.7776 14.9908 18.7776H16.865L17.9504 17.0246C18.5474 16.0604 19.0508 15.2715 19.0691 15.2715C19.0873 15.2715 19.5649 16.0604 20.1303 17.0246L21.1584 18.7776H23.2085H25.2588L24.1936 20.6663C23.6078 21.7051 23.1457 22.6007 23.1668 22.6566C23.3235 23.0725 27.7344 29.8914 27.8022 29.8223C27.8497 29.7738 30.2616 25.4799 33.162 20.2802L38.4355 10.8263L35.6137 10.7637L32.7921 10.7011L34.1675 8.25935L35.5429 5.81762L32.2531 5.78431L28.9633 5.751L27.2932 2.93512C26.3746 1.38631 25.5802 0.0925645 25.5278 0.0602585C25.4754 0.0278272 24.7621 1.09793 23.9429 2.43801C23.1235 3.77821 22.4215 4.87561 22.3829 4.87661C22.3441 4.87761 21.5913 3.77984 20.71 2.43701C19.8287 1.09418 19.062 0.0235693 19.0062 0.058004C18.9504 0.0924387 18.2435 1.16292 17.4352 2.43688C16.6268 3.71097 15.9254 4.75327 15.8765 4.75327C15.8277 4.75327 15.1444 3.68442 14.3581 2.37815C13.572 1.07176 12.9003 0.00115507 12.8657 -0.000973623C12.831 -0.00322753 12.0244 1.29102 11.0733 2.87502ZM20.0058 6.06267L20.885 7.37207L20.04 8.75346C19.5752 9.51328 19.1596 10.1355 19.1166 10.1362C19.0738 10.137 18.6608 9.51453 18.199 8.75308L17.3596 7.36843L18.1939 6.06092C18.6528 5.34167 19.0503 4.75327 19.0774 4.75327C19.1045 4.75327 19.5222 5.34255 20.0058 6.06267ZM13.6067 6.15809L14.2847 7.30658L13.996 7.8077C13.8372 8.08343 13.3497 8.86127 12.9127 9.53632L12.118 10.7637L10.3303 10.7633L8.54246 10.7631L7.8884 9.60506L7.23447 8.44718L9.02106 8.41262L10.8076 8.37819L11.8056 6.69402C12.3544 5.76778 12.8316 5.00984 12.8661 5.00972C12.9005 5.00972 13.2338 5.52649 13.6067 6.15809ZM26.5261 6.69414L27.5441 8.38457H29.291C30.2517 8.38457 31.0375 8.4269 31.0371 8.47849C31.0367 8.53008 30.762 9.05135 30.4268 9.63674L29.817 10.7011L27.9974 10.7357L26.1777 10.7702L25.0742 9.06012L23.9704 7.3499L24.2675 6.83413C24.716 6.05528 25.3994 5.00371 25.457 5.00371C25.4851 5.00371 25.9662 5.7644 26.5261 6.69414ZM26.5274 13.268C27.4917 13.268 28.2806 13.3054 28.2806 13.3511C28.2806 13.3966 27.9364 14.046 27.5156 14.7939L26.7506 16.1539L24.6687 16.1197L22.5869 16.0854L21.6144 14.4576C21.0741 13.5534 20.6717 12.7463 20.7091 12.642C20.746 12.5387 21.1508 11.8516 21.6086 11.1152L22.4409 9.77611L23.6076 11.5221L24.7743 13.268H26.5274ZM16.6916 11.2701C17.183 12.0849 17.4953 12.7317 17.4518 12.8449C17.4112 12.9505 16.9458 13.7384 16.4176 14.5956L15.457 16.1542L13.5037 16.1199L11.5506 16.0854L10.8325 14.8333C10.4376 14.1446 10.1132 13.5107 10.1117 13.4246C10.1096 13.3067 10.5402 13.268 11.8545 13.268H13.6001L14.5667 11.7341C15.536 10.196 15.7453 9.88718 15.8185 9.88718C15.8401 9.88718 16.2331 10.5095 16.6916 11.2701ZM7.13046 13.5498C7.23121 13.7048 8.09155 15.212 9.04224 16.8993C9.99293 18.5866 11.0961 20.5402 11.4939 21.2404L12.2171 22.5136L11.5092 23.6508C11.1197 24.2763 10.7637 24.788 10.7178 24.788C10.6282 24.788 4.43391 13.7173 4.36636 13.4365C4.3344 13.3036 4.60222 13.268 5.6365 13.268C6.85776 13.268 6.95964 13.2872 7.13046 13.5498ZM34.0245 13.386C33.9068 13.7182 27.7045 24.7801 27.6339 24.7838C27.5884 24.7861 27.2306 24.2804 26.8388 23.6599L26.1264 22.532L26.804 21.3121C27.1767 20.6413 28.3487 18.557 29.4084 16.6802L31.3352 13.268H32.7007C33.5009 13.268 34.0491 13.3169 34.0245 13.386Z" fill="#50AD25"/>
</svg>
