<svg width="146" height="35" viewBox="0 0 146 35" fill="none" xmlns="http://www.w3.org/2000/svg">
<path fill-rule="evenodd" clip-rule="evenodd" d="M9.0241 0.202062C8.97819 0.363612 8.45681 2.25513 7.86583 4.40552C7.27469 6.55591 6.25334 10.2619 5.59618 12.6411C2.62946 23.381 1.90562 26.0129 0.983715 29.4096C0.442704 31.4035 0 33.1068 0 33.1947C0 33.2898 0.9563 33.3547 2.35628 33.3547C4.69779 33.3547 4.71337 33.3522 4.86131 32.9532C4.94324 32.7323 6.33251 27.0985 7.94856 20.4336C11.1385 7.27898 11.15 7.23389 11.364 7.23389C11.444 7.23389 12.0041 7.66713 12.6086 8.1967C16.0345 11.1978 21.7493 16.0517 21.8564 16.0512C21.925 16.0511 24.0606 14.0325 26.6023 11.5655C29.144 9.09845 31.2729 7.13323 31.3329 7.19845C31.3931 7.26367 31.7664 8.58984 32.1623 10.1454C32.5585 11.701 33.5248 15.4819 34.31 18.5474C35.095 21.6128 36.2977 26.3295 36.9828 29.029L38.2282 33.937L40.3776 33.9836C42.3752 34.0267 42.5207 34.0091 42.4372 33.734C42.2561 33.1386 40.9877 28.4929 39.7219 23.7882C39.0078 21.1345 37.8492 16.8295 37.1473 14.2216C36.4452 11.6137 35.3189 7.42106 34.6442 4.90464C33.9697 2.38823 33.3779 0.220864 33.3292 0.0882634C33.2698 -0.0742847 31.391 1.74369 27.5763 5.65483L21.9118 11.4626L21.5408 11.1214C18.5985 8.41531 9.44182 0.11788 9.2989 0.0283709C9.18648 -0.0421719 9.07341 0.0295315 9.0241 0.202062ZM129.94 2.58289C129.94 2.77006 130.119 3.10697 130.338 3.33157C131.114 4.12768 132.632 3.71074 132.939 2.61699C133.023 2.31619 132.979 2.24265 132.714 2.24265C132.533 2.24265 132.307 2.39239 132.211 2.5754C132.089 2.80965 131.871 2.90815 131.477 2.90815C131.092 2.90815 130.853 2.80383 130.713 2.5754C130.444 2.13334 129.94 2.13817 129.94 2.58289ZM85.0044 3.4284C83.5907 3.86031 82.7199 5.16485 82.7119 6.86254C82.7053 8.30484 82.9814 9.15202 83.6981 9.88706C84.6458 10.859 86.36 11.1111 87.6165 10.4632C88.2705 10.126 89.0271 9.14154 89.2334 8.35908C89.5027 7.33854 89.3393 5.74583 88.879 4.90597C88.2054 3.6768 86.4198 2.99583 85.0044 3.4284ZM97.4144 3.32259C97.3252 3.3532 97.0496 3.42407 96.802 3.48014C96.0394 3.65284 95.0935 4.67338 94.8199 5.61889C94.3244 7.32972 94.6641 8.98914 95.708 9.95628C96.062 10.2845 96.5178 10.5875 96.7209 10.6299C96.9239 10.6722 97.2861 10.7492 97.5257 10.801C98.2473 10.9569 99.5804 10.5729 100.174 10.038C101.582 8.77086 101.689 5.83468 100.383 4.30985C99.766 3.58895 98.1788 3.06121 97.4144 3.32259ZM110.497 3.4893C109.06 3.94899 108.374 5.09032 108.368 7.03125C108.361 9.45582 109.455 10.7805 111.467 10.7823C113.026 10.7838 114.069 9.93681 114.453 8.35692C114.558 7.92268 114.535 7.89939 113.992 7.89939C113.489 7.89939 113.406 7.95945 113.313 8.39402C113.142 9.19278 112.38 9.72951 111.418 9.72951C110.718 9.72951 110.538 9.6578 110.138 9.21841C109.59 8.61696 109.435 7.93067 109.534 6.53861C109.598 5.62338 109.664 5.46633 110.199 4.96371C110.703 4.48987 110.913 4.40552 111.585 4.40552C112.438 4.40552 113.127 4.80515 113.314 5.40809C113.388 5.64934 113.56 5.73652 113.961 5.73652C114.498 5.73652 114.504 5.7287 114.358 5.1958C114.084 4.19106 112.665 3.21727 111.528 3.25287C111.349 3.25853 110.885 3.36485 110.497 3.4893ZM44.6111 6.97484V10.5614H45.0934H45.5758L45.6206 8.10736L45.6656 5.65333L46.4611 7.98257C46.8988 9.26366 47.3171 10.3927 47.3908 10.4915C47.4646 10.5902 47.7293 10.6402 47.979 10.6026C48.4052 10.5386 48.4765 10.4 49.1431 8.34344C49.5337 7.13839 49.9148 6.08124 49.9899 5.9944C50.0652 5.90755 50.1267 6.89947 50.1267 8.19886V10.5614H50.6977H51.2687L51.2249 7.02592L51.1811 3.49046H50.4646H49.7482L48.866 6.20436C48.381 7.69708 47.9376 8.87101 47.8812 8.81295C47.8246 8.75505 47.376 7.53369 46.8842 6.09904L45.99 3.49046L45.3006 3.43938L44.6111 3.38814V6.97484ZM54.3887 3.61524C54.3021 3.72971 53.8081 5.02111 53.291 6.4852C52.7738 7.9493 52.2208 9.45848 52.062 9.83898C51.9032 10.2195 51.8019 10.5604 51.8371 10.5965C51.8723 10.6326 52.1471 10.6328 52.4477 10.5967C52.9482 10.5368 53.0218 10.4521 53.3221 9.58959L53.6498 8.64807H54.9299H56.21L56.5263 9.59042C56.817 10.4559 56.8873 10.5381 57.3879 10.598C57.6877 10.6339 57.9664 10.608 58.0071 10.5406C58.0477 10.473 57.8726 9.86976 57.6178 9.2001C57.3631 8.53045 56.8391 7.04672 56.4533 5.90289C56.0677 4.75907 55.682 3.72971 55.5963 3.61524C55.5105 3.50094 55.2391 3.40727 54.9933 3.40727C54.7476 3.40727 54.4755 3.50094 54.3887 3.61524ZM58.837 3.51375C58.7751 3.57714 58.7244 5.18881 58.7244 7.0953V10.5614H59.2922H59.86V7.57229V4.58321L61.6039 4.53596L63.3478 4.48871V3.98958V3.49046L61.1487 3.44437C59.9392 3.41908 58.8988 3.4502 58.837 3.51375ZM64.0778 6.98433V10.5614H64.5644H65.0511V8.98082V7.40026H66.7544H68.4578V8.95304C68.4578 9.80721 68.4938 10.5429 68.5379 10.5882C68.582 10.6334 68.839 10.6371 69.1089 10.5965L69.5997 10.5226L69.556 7.00662L69.5122 3.49046H69.0256H68.5389L68.492 4.95206L68.445 6.4135L66.7887 6.36625L65.1322 6.31883L65.0853 4.86305L65.0385 3.40727H64.5581H64.0778V6.98433ZM70.9678 3.60858C70.9218 3.73153 70.9039 5.35851 70.9283 7.22391L70.9722 10.6158L71.4409 10.6366C71.6988 10.6482 71.9939 10.5712 72.0969 10.4656C72.1999 10.3599 72.9262 9.21525 73.7107 7.92185C74.4952 6.62845 75.2038 5.57014 75.2852 5.57014C75.368 5.57014 75.4333 6.67154 75.4333 8.06576V10.5614H75.92H76.4067V6.97434V3.38714L75.7998 3.43888C75.2054 3.48946 75.1613 3.54304 73.6504 6.04365L72.1078 8.59666L72.0267 6.04365L71.9456 3.49046L71.4985 3.43772C71.2337 3.40644 71.0173 3.47615 70.9678 3.60858ZM77.1193 3.64319C77.0692 3.77729 77.0533 4.02236 77.0841 4.1879C77.1303 4.43646 77.3297 4.49719 78.2333 4.53795L79.3267 4.58704V7.54651C79.3267 9.17415 79.3627 10.5429 79.4068 10.5882C79.4509 10.6334 79.7048 10.6376 79.971 10.5975L80.4549 10.5248L80.499 7.58993L80.5433 4.65508L81.6789 4.57189L82.8144 4.48871V3.98958V3.49046L80.0125 3.44487C77.6723 3.40694 77.1956 3.43955 77.1193 3.64319ZM90.466 3.51824C90.4064 3.57914 90.3578 5.18881 90.3578 7.0953V10.5614H90.9256H91.4933V7.57229V4.58321L93.2372 4.53596C94.9367 4.48987 94.9826 4.47856 95.0358 4.09157C95.0659 3.87312 94.993 3.63104 94.8736 3.55335C94.6185 3.38764 90.6245 3.35569 90.466 3.51824ZM102.561 3.53355C102.413 3.58413 102.362 4.50352 102.362 7.16451V10.7278H102.849H103.336V9.23038V7.73301H104.639C105.372 7.73301 106.173 7.63385 106.471 7.50608C107.935 6.87868 108.077 4.53097 106.695 3.79809C106.233 3.55335 103.091 3.3522 102.561 3.53355ZM115.502 7.03407V10.6609L116.07 10.593L116.638 10.5249L116.647 9.25384C116.655 8.07108 116.687 7.95762 117.101 7.6232L117.546 7.264L118.658 8.89797C119.748 10.5008 119.783 10.5329 120.477 10.5897C120.973 10.6301 121.163 10.5885 121.111 10.4506C121.07 10.3423 120.572 9.59292 120.002 8.78533C119.433 7.97775 118.833 7.10595 118.669 6.84807L118.37 6.37906L119.812 4.89316L121.254 3.40727H120.546C119.867 3.40727 119.767 3.47715 118.237 5.01895L116.638 6.63061V5.11993C116.638 3.53039 116.579 3.40727 115.813 3.40727C115.516 3.40727 115.502 3.56966 115.502 7.03407ZM121.829 6.96553V10.5236L122.312 10.5963C122.577 10.6362 122.856 10.6261 122.93 10.5735C123.005 10.5211 123.755 9.35566 124.597 7.98374L126.128 5.48912L126.209 8.06692C126.254 9.4846 126.345 10.6258 126.412 10.603C126.479 10.5802 126.717 10.5614 126.942 10.5614H127.351L127.307 7.02592L127.263 3.49046L126.807 3.43689C126.557 3.40744 126.256 3.46467 126.139 3.56433C126.022 3.66399 125.278 4.82961 124.486 6.15478C123.694 7.47979 122.991 8.56422 122.924 8.56439C122.857 8.56472 122.802 7.40442 122.802 5.98608V3.40727H122.316H121.829V6.96553ZM128.719 3.60858C128.673 3.73153 128.655 5.36134 128.679 7.23023L128.723 10.6281L129.169 10.6115C129.415 10.6021 129.674 10.5872 129.746 10.578C129.818 10.5689 130.557 9.43835 131.389 8.06576C132.221 6.69317 132.966 5.57014 133.043 5.57014C133.121 5.57014 133.184 6.69317 133.184 8.06576V10.5614H133.671H134.158V6.97434V3.38714L133.551 3.43888C132.957 3.48946 132.912 3.54304 131.401 6.04365L129.859 8.59666L129.778 6.04365L129.697 3.49046L129.25 3.43772C128.985 3.40644 128.768 3.47615 128.719 3.60858ZM87.3142 4.73378C88.5852 5.75914 88.5604 8.45857 87.271 9.40008C86.9605 9.62669 86.5571 9.72951 85.9771 9.72951C85.2393 9.72951 85.0672 9.6608 84.5973 9.17881C83.4747 8.0275 83.4831 5.93167 84.6143 4.91313C85.0919 4.48305 85.3101 4.40552 86.0427 4.40552C86.6578 4.40552 87.0248 4.50019 87.3142 4.73378ZM99.0331 4.60051C99.5861 4.85889 100.069 5.68944 100.189 6.59019C100.419 8.30801 99.45 9.72951 98.0497 9.72951C97.0702 9.72951 96.4315 9.36082 96.0372 8.56805C95.3847 7.25652 95.7835 5.23606 96.8071 4.66656C97.3457 4.36675 98.4621 4.33365 99.0331 4.60051ZM106.196 4.75657C106.318 4.86039 106.418 5.2339 106.418 5.58661C106.418 6.50117 105.97 6.76538 104.528 6.70116L103.417 6.65158L103.367 5.6688C103.337 5.06386 103.388 4.6411 103.502 4.5694C103.782 4.39204 105.944 4.54211 106.196 4.75657ZM55.4026 6.23564C55.5603 6.73892 55.7232 7.24437 55.7644 7.35867C55.8187 7.50974 55.5856 7.56664 54.9122 7.56664C54.238 7.56664 54.006 7.5099 54.0617 7.35867C54.1037 7.24437 54.305 6.67919 54.5091 6.10287C54.7133 5.52655 54.9333 5.11477 54.998 5.18781C55.0628 5.26085 55.2448 5.73236 55.4026 6.23564ZM12.561 10.4987C12.5012 10.762 11.2564 15.8721 9.79498 21.8544C8.33352 27.8369 7.13778 32.8717 7.13778 33.0431C7.13778 33.3268 7.28248 33.3547 8.75432 33.3547C10.1303 33.3547 10.3924 33.3114 10.5161 33.0635C10.5959 32.9035 11.1143 30.9755 11.668 28.7794C13.9544 19.7107 14.6188 17.1182 14.7288 16.8367C14.8257 16.5886 15.4243 17.0202 18.3859 19.4729L21.9273 22.4058L22.2786 22.0798C26.8062 17.8804 28.3081 16.5519 28.3571 16.7026C28.3899 16.8034 29.3486 20.7225 30.4874 25.4115L32.5582 33.937L34.2858 33.9843C35.266 34.0111 36.0133 33.9651 36.0133 33.878C36.0133 33.7202 35.583 31.8756 33.0963 21.3757C32.3053 18.0358 31.3902 14.1612 31.0626 12.7658C30.7353 11.3705 30.416 10.2286 30.3536 10.2286C30.2909 10.2286 29.2728 11.164 28.0912 12.3073C24.9908 15.3069 22.0372 18.0482 21.9058 18.0482C21.7313 18.0482 16.0871 13.153 13.0266 10.3473L12.6699 10.0202L12.561 10.4987ZM141.62 13.2126C141.62 14.0819 142.624 14.8061 143.561 14.6136C144.112 14.5008 144.702 13.8554 144.702 13.3673C144.702 12.9372 144.404 12.9796 143.958 13.4729C143.751 13.7017 143.429 13.8889 143.243 13.8889C143.056 13.8889 142.721 13.7017 142.497 13.4729C142.093 13.058 141.62 12.9177 141.62 13.2126ZM121.797 14.552C119.415 15.8787 119.504 20.4387 121.933 21.4795C123.373 22.0966 125.212 21.5033 125.844 20.2174C126.366 19.1546 126.334 18.7137 125.735 18.7137C125.338 18.7137 125.231 18.8074 125.075 19.2906C124.664 20.567 123.315 21.0801 122.2 20.3833C121.453 19.916 121.056 18.5038 121.314 17.2335C121.513 16.2595 121.811 15.8231 122.543 15.4348C123.389 14.9859 124.761 15.4598 125.077 16.31C125.27 16.8309 126.209 16.9131 126.209 16.4091C126.209 16.0017 125.591 15.0864 125.028 14.658C124.368 14.1566 122.611 14.0988 121.797 14.552ZM44.6111 17.9651V21.5421H45.0978H45.5844V19.1019C45.5844 17.7599 45.6244 16.7028 45.6732 16.7528C45.722 16.8028 46.1151 17.8822 46.5469 19.1513L47.3317 21.4589L47.8792 21.5082L48.4267 21.5574L49.2362 19.0957L50.0456 16.6341L50.0905 19.0881L50.1353 21.5421H50.6988H51.2622V17.9559V14.3697L50.498 14.4204L49.7336 14.4712L48.8097 17.2164C48.0071 19.6018 47.8661 19.907 47.7349 19.5456C47.6516 19.3168 47.2252 18.063 46.7868 16.7592L45.99 14.3888L45.3006 14.3883L44.6111 14.388V17.9651ZM52.3978 17.9651V21.5421H54.9933H57.5889V21.043V20.5439H55.5611H53.5333V19.4624V18.381H55.3989H57.2644V17.8819V17.3827H55.3989H53.5333V16.3845V15.3862H55.5611H57.5889V14.8871V14.388H54.9933H52.3978V17.9651ZM58.2378 14.8795C58.2378 15.3706 58.2389 15.3711 59.3328 15.4202L60.4278 15.4694L60.4721 18.5058L60.5162 21.5421H61.0804H61.6444V18.4642V15.3862H62.78H63.9156V14.8871V14.388H61.0767H58.2378V14.8795ZM64.1993 17.833C63.5079 19.7358 62.9421 21.3486 62.9421 21.4173C62.9422 21.486 63.1917 21.5421 63.4965 21.5421C64.0272 21.5421 64.064 21.5013 64.3612 20.5855L64.6717 19.6288L65.9813 19.5807L67.2909 19.5326L67.6038 20.4958L67.9166 21.4589L68.7955 21.5734C69.8921 21.7163 70.2726 21.6243 70.754 21.0992C71.115 20.7056 71.137 20.5488 71.1862 18.0286L71.2381 15.3726L72.484 15.421L73.73 15.4694L73.7743 18.5058L73.8184 21.5421H74.3826H74.9467V17.9651V14.388H72.5133H70.08V17.3862V20.3846L69.6819 20.5706C69.4631 20.673 69.2556 20.8771 69.2209 21.0245C69.1385 21.3741 68.9865 21.0049 67.7215 17.3827L66.7046 14.4712L66.0807 14.4223L65.4567 14.3732L64.1993 17.833ZM76.4067 17.2877C76.4067 19.7018 76.364 20.2311 76.1518 20.4489C76.0115 20.5926 75.829 20.7102 75.7463 20.7102C75.6634 20.7102 75.5956 20.9442 75.5956 21.2302C75.5956 21.7279 75.6179 21.7454 76.1228 21.6421C76.4128 21.5827 76.8325 21.3471 77.0556 21.1188C77.4493 20.7157 77.4626 20.6259 77.5129 18.0449L77.5646 15.3862H78.8512H80.1378V18.4642V21.5421H80.7056H81.2733V17.9651V14.388H78.84H76.4067V17.2877ZM81.9222 14.4797C81.9222 14.5299 82.5062 15.6446 83.22 16.9567C83.9338 18.2687 84.5178 19.4836 84.5178 19.6564C84.5178 19.8293 84.4 20.1431 84.2561 20.3539C84.0584 20.6434 83.8974 20.7119 83.5965 20.6344C83.2281 20.5395 83.2023 20.5725 83.2499 21.0786C83.2961 21.5717 83.3569 21.6301 83.8718 21.6747C84.3225 21.7136 84.5332 21.626 84.8726 21.2588C85.2217 20.8811 88.0867 14.8294 88.0867 14.4697C88.0867 14.4138 87.8153 14.3912 87.4835 14.4196C86.8807 14.4712 86.8797 14.4725 86.1452 16.2569C85.7408 17.2392 85.337 18.0431 85.2478 18.0436C85.1586 18.0439 84.6615 17.2217 84.143 16.2161L83.2007 14.388H82.5614C82.2098 14.388 81.9222 14.4293 81.9222 14.4797ZM88.7356 17.9651V21.5421H89.3033H89.8711V20.1279V18.7137L90.885 18.7097C93.1673 18.7008 94.0889 18.0659 94.0889 16.5021C94.0889 14.8079 93.397 14.388 90.6063 14.388H88.7356V17.9651ZM95.0622 17.9651V21.5421H95.63H96.1978V18.4642V15.3862H97.9822H99.7667V14.8871V14.388H97.4144H95.0622V17.9651ZM100.416 17.975V21.5622L101.018 21.5105C101.606 21.4602 101.659 21.3967 103.167 18.922C104.018 17.5267 104.769 16.385 104.836 16.3848C104.903 16.3847 104.958 17.545 104.958 18.9633V21.5421H105.444H105.931V17.9651V14.388H105.302H104.673L103.153 16.963C102.316 18.3792 101.578 19.5396 101.511 19.5418C101.444 19.5439 101.389 18.3851 101.389 16.9668V14.388H100.902H100.416V17.975ZM107.229 16.0146C107.229 17.8516 107.395 18.2607 108.299 18.6482C108.982 18.9405 109.674 18.9393 110.757 18.6437L111.609 18.4111V19.9767V21.5421H112.177H112.744V17.9651V14.388H112.177H111.609V15.8591V17.33L110.982 17.5228C110.078 17.8005 108.924 17.7669 108.619 17.4541C108.428 17.2578 108.364 16.8434 108.364 15.7904V14.388H107.797H107.229V16.0146ZM114.042 17.9651V21.5421H116.638H119.233V21.043V20.5439H117.206H115.178V19.4624V18.381H117.043H118.909V17.8874V17.3937L117.084 17.3466L115.259 17.2996L115.21 16.3429L115.162 15.3862H117.197H119.233V14.8871V14.388H116.638H114.042V17.9651ZM127.182 17.9651V21.5421H127.75H128.318V20.3254C128.318 19.1866 128.349 19.0778 128.812 18.6231C129.115 18.3258 129.351 18.2041 129.42 18.3096C129.483 18.4043 129.999 19.1704 130.566 20.012L131.598 21.5421H132.321H133.044L132.675 21.0014C132.471 20.7039 131.846 19.8062 131.285 19.0062C130.724 18.2063 130.264 17.4591 130.264 17.346C130.264 17.2328 130.865 16.5209 131.599 15.7641L132.934 14.388H132.204C131.501 14.388 131.421 14.4426 130.021 15.8854C129.222 16.7089 128.512 17.3827 128.443 17.3827C128.374 17.3827 128.318 16.7089 128.318 15.8854V14.388H127.75H127.182V17.9651ZM133.509 17.9651V21.5421H134.139H134.769L136.154 19.2545C138.226 15.8326 138.04 15.8654 138.046 18.9217L138.051 21.5421H138.619H139.187V17.9556V14.3689L138.497 14.4201L137.808 14.4712L136.267 17.0468L134.726 19.6226L134.681 17.0052L134.636 14.388H134.073H133.509V17.9651ZM140.43 14.499C140.371 14.5599 140.322 16.1739 140.322 18.0855V21.5612L140.987 21.51L141.652 21.4589L143.218 18.8924L144.783 16.3259L144.828 18.934L144.873 21.5421H145.436H146V17.9651V14.388H145.364H144.729L143.134 17.0077L141.539 19.6276L141.494 17.0077L141.449 14.388H140.994C140.744 14.388 140.49 14.4379 140.43 14.499ZM92.5927 15.6453C93.0302 15.9596 93.0786 16.7988 92.6849 17.2448C92.4683 17.4904 92.1706 17.5491 91.1437 17.5491H89.8711V16.4677V15.3862H91.0516C91.8577 15.3862 92.3466 15.4684 92.5927 15.6453ZM66.4792 17.1866C66.6751 17.8107 66.8356 18.3722 66.8356 18.4344C66.8356 18.5893 65.2495 18.5781 65.1635 18.4226C65.0759 18.2639 65.8703 16.0517 66.0149 16.0517C66.0742 16.0517 66.2832 16.5624 66.4792 17.1866ZM14.79 23.6634C14.4074 25.4707 13.7805 28.351 13.3966 30.0643C13.0127 31.7775 12.737 33.2188 12.7841 33.267C12.8311 33.3153 13.9078 33.3547 15.1769 33.3547C17.832 33.3547 17.4352 33.5514 19.4678 31.2284L20.8188 29.6846L22.6323 31.5196L24.4458 33.3547H26.985C28.3818 33.3547 29.5188 33.2986 29.512 33.2299C29.5051 33.1612 28.3066 32.057 26.8486 30.7759C25.3907 29.4948 24.1919 28.3728 24.1844 28.2826C24.1771 28.1924 25.0969 27.1669 26.2284 26.0039L28.2856 23.8893L27.8356 22.3262C27.588 21.4664 27.3265 20.6653 27.2546 20.546C27.1602 20.3893 26.1382 21.1801 23.5792 23.3904C19.2618 27.1192 18.5707 27.698 18.4361 27.698C18.3783 27.698 18.3311 26.5804 18.3311 25.2145V22.7309L16.9928 21.5549C16.2568 20.9082 15.6165 20.3787 15.5699 20.3783C15.5235 20.3778 15.1725 21.8561 14.79 23.6634ZM52.1544 25.2859C50.1664 26.0068 49.3928 28.9463 50.614 31.1391C51.18 32.1556 52.0926 32.6892 53.2653 32.6892C54.64 32.6892 55.6889 32.0373 56.3437 30.7759C56.8349 29.8296 56.8305 27.8888 56.3351 26.9287C55.5045 25.3195 53.8523 24.6703 52.1544 25.2859ZM44.6111 28.8626V32.5228H45.0978H45.5844V31.267C45.5844 30.1229 45.6226 29.9751 46.0137 29.6033C46.2497 29.379 46.5021 29.1953 46.5746 29.1953C46.647 29.1953 47.2013 29.944 47.8064 30.8591L48.9066 32.5228H49.5978C49.9779 32.5228 50.2889 32.4743 50.2889 32.4149C50.2889 32.3555 49.6684 31.4266 48.91 30.3505C48.1516 29.2745 47.5311 28.3294 47.5311 28.2502C47.5311 28.171 48.1151 27.5106 48.8289 26.7829C49.5427 26.0552 50.1267 25.4018 50.1267 25.331C50.1267 25.2602 49.8515 25.2023 49.5151 25.2023C48.9585 25.2023 48.7658 25.3443 47.3689 26.7829C46.5248 27.6522 45.778 28.3635 45.7094 28.3635C45.6406 28.3635 45.5844 27.6522 45.5844 26.7829V25.2023H45.0978H44.6111V28.8626ZM57.7511 28.8626V32.5228H58.2378H58.7244V30.2034C58.7244 28.9276 58.7866 27.8445 58.8627 27.7965C58.9386 27.7482 59.0873 28.0246 59.1931 28.4105C59.2989 28.7964 59.6475 29.8836 59.9679 30.8265C60.5494 32.538 60.5512 32.5406 61.0569 32.4902C61.5554 32.4405 61.5753 32.4029 62.3271 30.1127C62.7471 28.833 63.1486 27.766 63.2193 27.7417C63.2899 27.7174 63.3478 28.7646 63.3478 30.0686V32.4396L63.8782 32.4921L64.4085 32.5445L64.3649 28.915L64.3211 25.2855H63.5961H62.8713L62.0375 27.9475C61.5789 29.4116 61.1456 30.6095 61.0747 30.6095C61.0037 30.6095 60.5371 29.3935 60.0378 27.9073L59.13 25.2052L58.4406 25.2037L57.7511 25.2023V28.8626ZM65.6103 25.4148C65.5667 25.5316 65.5506 27.1601 65.5749 29.0335L65.6189 32.4396L67.4937 32.4862C69.2214 32.5292 69.4125 32.5027 69.927 32.1502C70.6731 31.6391 71.0931 30.7804 70.9657 30.0272C70.7344 28.6604 69.9775 28.1971 67.9763 28.1971H66.6733V27.282V26.367H68.62H70.5667V25.7847V25.2023H68.1283C66.2996 25.2023 65.67 25.2554 65.6103 25.4148ZM71.937 25.4148C71.8933 25.5316 71.8773 27.1601 71.9016 29.0335L71.9456 32.4396L72.5133 32.4861L73.0811 32.5326L74.6222 29.9575C75.4698 28.5412 76.218 27.3785 76.285 27.3739C76.352 27.369 76.4067 28.5305 76.4067 29.9545V32.544L76.9339 32.4917L77.4611 32.4396V28.8626V25.2855L76.8828 25.2358L76.3045 25.1859L74.6928 27.8657L73.0811 30.5455L73.0365 27.874L72.9919 25.2023H72.5042C72.2359 25.2023 71.9808 25.298 71.937 25.4148ZM78.7503 25.4148C78.7067 25.5316 78.6906 27.1601 78.7149 29.0335L78.7589 32.4396L79.2801 32.4914L79.8013 32.543L79.8479 30.9108L79.8944 29.2785H81.5167H83.1389L83.1853 30.9007L83.2317 32.5228H83.7969H84.3619L84.3182 28.9042L84.2744 25.2855L83.7537 25.234L83.233 25.1822L83.1859 26.6481L83.1389 28.1139H81.5167H79.8944L79.8476 26.6581L79.8007 25.2023H79.3153C79.0483 25.2023 78.7941 25.298 78.7503 25.4148ZM87.461 25.5667C87.3847 25.778 86.8009 27.3875 86.1635 29.1431C85.526 30.8987 85.0044 32.3773 85.0044 32.429C85.0044 32.4806 85.2539 32.5228 85.5588 32.5228C86.0892 32.5228 86.1262 32.4819 86.4239 31.5662L86.7349 30.6095H88.0867H89.4385L89.7494 31.5662C90.0471 32.4819 90.0841 32.5228 90.6146 32.5228C90.9681 32.5228 91.1689 32.4425 91.1689 32.3012C91.1689 32.1794 90.6285 30.551 89.9681 28.6826L88.7675 25.2855L88.1835 25.234C87.6975 25.1909 87.5762 25.2468 87.461 25.5667ZM90.2593 25.4383C90.2092 25.5724 90.1933 25.8174 90.2241 25.983C90.271 26.2345 90.4725 26.2918 91.4546 26.3327L92.6289 26.3816V29.4627V32.544L93.1561 32.4917L93.6833 32.4396L93.7275 29.4108L93.7717 26.3819L94.863 26.3329L95.9544 26.2838V25.7847V25.2855L93.1525 25.24C90.8123 25.202 90.3356 25.2346 90.2593 25.4383ZM54.4345 26.4656C55.9801 27.2178 56.014 30.4756 54.4848 31.2867C52.9187 32.1172 51.2921 31.0695 51.1352 29.1293C50.9587 26.9465 52.6375 25.5912 54.4345 26.4656ZM88.5584 27.8966C89.0353 29.3449 89.0298 29.3617 88.0867 29.3617C87.6406 29.3617 87.2756 29.2963 87.2756 29.2163C87.2756 28.9355 88.0445 26.8661 88.1488 26.8661C88.1876 26.8661 88.3719 27.3298 88.5584 27.8966ZM69.6652 29.7316C69.9976 30.218 69.984 30.5721 69.6149 31.0394C69.3464 31.3795 69.167 31.4241 68.0332 31.4322L66.7544 31.4414L66.7061 30.4016L66.6579 29.3617H68.0353C69.2747 29.3617 69.4379 29.3988 69.6652 29.7316Z" fill="#005AAB"/>
</svg>
