<svg width="66" height="55" viewBox="0 0 66 55" fill="none" xmlns="http://www.w3.org/2000/svg">
<path fill-rule="evenodd" clip-rule="evenodd" d="M30.6136 0.0757661C27.4219 0.307012 23.9918 1.22607 21.0258 2.64472C18.1685 4.01138 15.7586 5.73984 13.428 8.09427C10.4356 11.1173 8.56763 14.0713 6.99078 18.2746L6.81363 18.7468L3.43108 19.4254L0.0485322 20.1041L0.0289723 22.124C0.0105153 24.0252 0.0169863 24.1417 0.139273 24.1053C0.210674 24.084 1.46038 23.8301 2.91635 23.5411C4.37231 23.252 5.60959 22.9996 5.66577 22.9803C5.74901 22.9517 5.7585 23.0245 5.71673 23.3726C5.68849 23.6076 5.63768 24.0437 5.60371 24.3415C5.56974 24.6394 5.52216 24.903 5.49797 24.9274C5.47378 24.9518 4.4032 25.1827 3.11893 25.4404C1.83467 25.6983 0.610183 25.9451 0.397817 25.989L0.0117654 26.0689V28.0629C0.0117654 29.1596 0.0283105 30.0569 0.0486058 30.0569C0.0688276 30.0569 1.25184 29.8237 2.67744 29.5388C4.10303 29.2539 5.30612 29.0206 5.3509 29.0205C5.4401 29.0202 5.64386 30.7782 5.564 30.8586C5.53841 30.8844 4.27606 31.156 2.75876 31.4623L0 32.0191L0.00816224 33.9775C0.0126478 35.0545 0.0323548 35.9519 0.0519148 35.9716C0.0714748 35.9913 1.46847 35.7335 3.15643 35.3989C4.84433 35.0642 6.25845 34.792 6.2989 34.794C6.33934 34.796 6.56296 35.3886 6.79576 36.111C7.36462 37.8759 8.12217 39.6167 8.95692 41.077C13.5286 49.0749 21.3797 54.1406 30.4459 54.9417C31.7524 55.0572 34.9714 54.9936 36.1903 54.8281C46.5215 53.4262 55.0469 46.4763 58.4928 36.647C58.8309 35.6825 59.3894 33.6966 59.3373 33.6442C59.3029 33.6095 54.601 34.548 54.5027 34.6092C54.4671 34.6314 54.3808 34.824 54.311 35.0374C54.0799 35.743 53.3919 37.3384 52.9782 38.1279C49.321 45.1071 42.6387 49.644 34.8773 50.4177C33.8979 50.5153 31.5706 50.5153 30.5912 50.4177C24.8868 49.8491 19.8724 47.3392 15.9495 43.089C10.2609 36.9256 8.40623 27.9735 11.1601 19.9704C13.0954 14.346 17.2096 9.63191 22.5115 6.96396C24.9476 5.73813 27.1007 5.07476 29.9032 4.68661C31.2346 4.50223 34.2338 4.50179 35.5285 4.68579C39.2802 5.21892 42.4501 6.41551 45.3949 8.41038C45.8361 8.7093 46.2536 8.95387 46.3227 8.95387C46.5844 8.9541 51.7795 7.8948 51.7795 7.84126C51.7795 7.81038 51.49 7.52094 51.1361 7.19802C45.4705 2.02902 38.2486 -0.477283 30.6136 0.0757661ZM56.4856 8.81282C53.6849 9.37808 44.6875 11.1798 36.0065 12.9139C34.6719 13.1805 30.2378 14.0667 26.153 14.8833C22.0682 15.6998 17.7334 16.5658 16.5201 16.8076C14.8758 17.1354 14.2884 17.2803 14.2133 17.3767C13.8107 17.8933 12.306 21.6157 12.4998 21.6157C12.5269 21.6157 14.0382 21.3175 15.8582 20.953C17.6782 20.5886 23.0223 19.5214 27.734 18.5816C32.4456 17.6418 36.9459 16.7418 37.7346 16.5815C38.5232 16.4213 42.5933 15.6066 46.7792 14.7712C50.9651 13.9358 55.9948 12.9319 57.9563 12.5403C59.9178 12.1486 61.5334 11.8176 61.5466 11.8046C61.5597 11.7917 61.2325 10.9617 60.8195 9.96023C60.1671 8.37831 60.0481 8.14018 59.9132 8.14589C59.8278 8.14944 58.2854 8.44955 56.4856 8.81282ZM59.5741 14.146C58.1788 14.4285 53.695 15.3274 49.6102 16.1434C45.5255 16.9594 39.7678 18.11 36.8154 18.7004C33.863 19.2907 29.4455 20.1735 26.9986 20.6622C24.5518 21.1509 21.1435 21.8323 19.4247 22.1765C17.7058 22.5206 15.3564 22.9879 14.2038 23.2149C13.0511 23.4418 12.071 23.6664 12.0256 23.7137C11.8628 23.8842 11.6049 26.2238 11.6438 27.1778L11.6669 27.7418L14.7185 27.1302C16.3969 26.7937 19.3916 26.1954 21.3733 25.8006C23.355 25.4058 26.449 24.7879 28.2487 24.4274C30.0484 24.0669 34.8796 23.1015 38.9846 22.2818C60.1234 18.0609 63.7851 17.3264 63.8072 17.3023C63.8163 17.2922 63.6814 16.9341 63.5074 16.5065C62.5654 14.1924 62.3247 13.6568 62.2213 13.645C62.1606 13.638 60.9694 13.8635 59.5741 14.146ZM60.6771 19.8751C58.5942 20.2956 54.1271 21.1914 50.75 21.866C45.6494 22.885 44.5913 23.1169 44.4997 23.2363C44.439 23.3154 44.0708 23.8744 43.6814 24.4786C43.023 25.5003 40.6225 29.2115 39.7741 30.5197C39.5694 30.8353 39.3856 31.0935 39.3658 31.0935C39.3459 31.0935 39.2107 30.9526 39.0652 30.7803C38.8762 30.5564 35.2393 26.3328 34.2812 25.2244C34.2544 25.1933 33.159 25.3831 31.8472 25.6462C28.8425 26.2489 15.0048 29.0129 13.1375 29.3834L11.7404 29.6607L11.7624 29.9514C11.8236 30.7608 12.3809 33.4181 12.5058 33.4959C12.5353 33.5142 13.2024 33.3993 13.9882 33.2404C16.7664 32.6789 22.165 31.6119 22.2283 31.6119C22.2642 31.6119 22.2925 33.685 22.2925 36.3138C22.2925 40.081 22.3112 41.0157 22.3865 41.0157C22.4381 41.0157 23.3125 40.8491 24.3296 40.6455C25.3467 40.4418 26.1978 40.2752 26.221 40.2752C26.2443 40.2752 26.2633 38.1449 26.2633 35.5413C26.2633 31.0964 26.2712 30.8051 26.392 30.7697C26.4627 30.749 27.7119 30.4949 29.1679 30.205C30.6238 29.9151 31.873 29.661 31.9438 29.6402C32.0654 29.6047 32.0725 29.8638 32.0725 34.3516C32.0725 38.839 32.0795 39.0984 32.2011 39.0636C32.272 39.0434 33.1488 38.8663 34.1498 38.6701L35.9697 38.3133V35.9252C35.9697 34.6117 35.9945 33.5385 36.0249 33.5402C36.0553 33.5419 36.8246 34.4557 37.7346 35.5709C38.6445 36.6862 39.4056 37.6004 39.4258 37.6025C39.4461 37.6046 40.2733 36.3671 41.2642 34.8523L43.0658 32.0983L43.0852 34.4921C43.1032 36.7224 43.1132 36.8836 43.2322 36.8525C43.3025 36.8342 44.1786 36.6576 45.1793 36.46L46.9987 36.1008L47.0177 31.362L47.0366 26.6232L49.4999 26.1291C50.8548 25.8574 55.1069 25.0092 58.949 24.2442C62.7912 23.4792 65.9616 22.8293 65.9945 22.8C66.0274 22.7707 65.9091 22.4005 65.7318 21.9775C65.5543 21.5545 65.215 20.7335 64.9775 20.1532C64.74 19.5729 64.5274 19.101 64.5049 19.1045C64.4824 19.1079 62.7599 19.4547 60.6771 19.8751Z" fill="#C3122F"/>
</svg>
