<svg width="120" height="36" viewBox="0 0 120 36" fill="none" xmlns="http://www.w3.org/2000/svg">
<path fill-rule="evenodd" clip-rule="evenodd" d="M89.2726 1.06388C89.1703 1.13729 89.1634 1.37979 89.2531 1.74663C89.3616 2.19047 89.8817 2.58363 90.5169 2.70184C90.8343 2.7609 91.5116 2.76063 91.8304 2.70129C92.3573 2.60322 92.8175 2.31348 92.9986 1.96568C93.0776 1.81407 93.1878 1.39746 93.1878 1.25045C93.1878 1.21374 93.1457 1.1423 93.0941 1.0917C93.0136 1.01272 92.9379 0.999707 92.5584 0.999707C92.055 0.999707 91.9988 1.02896 91.9522 1.31507C91.8752 1.78757 91.2912 2.01867 90.7657 1.78454C90.5337 1.68118 90.4384 1.55289 90.3949 1.28554C90.3756 1.16668 90.3293 1.07077 90.2784 1.04405C90.1442 0.973534 89.3775 0.988667 89.2726 1.06388ZM11.31 3.46542L9.42326 5.28609V6.64264C9.42326 7.49702 9.44004 7.99348 9.46863 7.98382C9.49357 7.97541 10.119 7.38892 10.8584 6.68054C11.5978 5.97216 12.226 5.38692 12.2544 5.38002C12.2917 5.37091 12.311 7.04656 12.324 11.4236L12.3419 17.4797L11.949 17.8485C11.7329 18.0514 11.0814 18.6682 10.5014 19.2192L9.44669 20.2209L9.45119 21.535C9.45373 22.2578 9.46774 22.8543 9.48241 22.8606C9.51307 22.8738 9.94314 22.4741 11.2982 21.1728L12.2592 20.2502L12.2721 20.9629L12.2852 21.6757L10.875 23.0559L9.46479 24.4362L9.46558 25.7644C9.46605 26.4949 9.47252 27.0982 9.47998 27.1049C9.48748 27.1116 10.1053 26.53 10.8529 25.8124C11.6006 25.0948 12.2334 24.5071 12.2592 24.5063C12.2889 24.5054 12.3009 24.7474 12.2919 25.1701L12.2778 25.8354L10.8745 27.1841L9.47121 28.5328L9.45893 29.8768C9.45223 30.616 9.46085 31.2157 9.47819 31.2094C9.51555 31.1957 10.0111 30.7269 11.8353 28.9793C12.5819 28.2641 13.205 27.6789 13.2202 27.6789C13.2562 27.6789 13.7801 28.1789 15.5185 29.8725C16.3057 30.6394 16.9649 31.2668 16.9834 31.2668C17.0018 31.2668 17.0169 30.6593 17.0169 29.9167V28.5665L16.6068 28.1823C16.3812 27.9709 15.7378 27.3597 15.1771 26.8239L14.1576 25.8499V25.1522C14.1576 24.5363 14.1661 24.4591 14.23 24.4943C14.2699 24.5161 14.8982 25.1175 15.6263 25.8305C16.3543 26.5436 16.9651 27.127 16.9835 27.127C17.0019 27.127 17.0169 26.5195 17.0169 25.7772V24.4273L16.3724 23.8133C16.0179 23.4755 15.374 22.8605 14.9415 22.4467L14.1553 21.6942L14.1681 20.9649L14.181 20.2355L15.5638 21.5633C16.3243 22.2936 16.9624 22.892 16.9818 22.8931C17.0011 22.8942 17.0172 22.3 17.0177 21.5726L17.0185 20.2502L16.508 19.7672C16.2273 19.5015 15.5835 18.8924 15.0776 18.4135L14.1576 17.5429V11.4539C14.1576 6.23307 14.167 5.37027 14.2235 5.40178C14.2598 5.42202 14.8741 5.99746 15.5887 6.68054C16.3033 7.36362 16.9169 7.93907 16.9524 7.95931C17.0066 7.99017 17.0169 7.77908 17.0169 6.64522V5.29433L16.0677 4.3807C15.5457 3.87821 14.6955 3.05681 14.1785 2.55538C13.6615 2.05395 13.229 1.64392 13.2176 1.64419C13.2061 1.64447 12.3476 2.46403 11.31 3.46542ZM70.8522 3.08855C70.279 3.19854 69.7272 3.45686 69.3062 3.81234C69.1294 3.96161 68.8071 4.41423 68.628 4.76497C68.3128 5.38209 68.1645 6.34535 68.2485 7.22981C68.4001 8.82588 69.1339 9.79419 70.4537 10.1396C70.9275 10.2637 71.9121 10.2512 72.3976 10.115C73.3175 9.85694 73.5585 9.57202 73.4783 8.83738C73.4337 8.42882 73.3708 8.40494 72.9658 8.64298C72.4442 8.94957 72.1893 9.02201 71.6256 9.02399C71.1634 9.0256 71.1143 9.01659 70.8197 8.87551C70.3222 8.63733 70.0278 8.23116 69.8667 7.56068C69.7728 7.17015 69.7764 6.19287 69.8733 5.76963C70.0248 5.10711 70.3814 4.60499 70.8661 4.37141C71.1091 4.25434 71.1783 4.24289 71.6256 4.24542C72.1803 4.24859 72.4146 4.32118 72.9024 4.64119C73.3583 4.94018 73.4537 4.86631 73.4537 4.21432C73.4537 3.76427 73.3855 3.61869 73.0879 3.4334C72.5543 3.10129 71.574 2.95005 70.8522 3.08855ZM0.0132186 15.4088C0.0256872 27.0394 0.0312652 27.7713 0.110108 28.1549C0.412729 29.6272 1.09921 30.845 2.2181 31.8945C3.17607 32.793 4.38885 33.4302 5.68376 33.7152C6.08299 33.803 6.32008 33.8132 8.57952 33.8392C10.9927 33.867 11.0463 33.8695 11.3418 33.9734C11.5075 34.0316 11.7199 34.1177 11.8138 34.1647C12.3436 34.43 12.8324 35.0074 13.0897 35.6724C13.2307 36.0364 13.2425 36.0525 13.2791 35.9293C13.577 34.9257 14.1919 34.2829 15.1572 33.9659C15.429 33.8767 15.5921 33.869 17.8372 33.8406C19.8088 33.8157 20.3014 33.7965 20.6476 33.7313C22.039 33.4695 23.2801 32.8341 24.3074 31.8575C25.3456 30.8705 25.9778 29.7651 26.3287 28.3229C26.4081 27.9965 26.4134 27.3075 26.4262 15.5238L26.4398 3.06965H21.2597C18.4105 3.06965 16.0794 3.08009 16.0794 3.09288C16.0794 3.10566 16.5713 3.60231 17.1725 4.19652L18.2656 5.27689L21.2388 5.28872L24.2121 5.30058V16.4323V27.5639L24.0856 28.0137C23.9489 28.4996 23.6499 29.1592 23.3754 29.5803C23.1318 29.954 22.5104 30.5734 22.0992 30.8523C21.4771 31.2743 20.7197 31.5545 20.0457 31.612C19.8881 31.6254 18.9048 31.6447 17.8607 31.6548C16.0231 31.6727 15.9478 31.677 15.5133 31.7874C14.7745 31.9752 14.191 32.3031 13.5813 32.8732L13.216 33.2149L12.9485 32.96C12.3946 32.4322 11.8851 32.1106 11.2514 31.8888C10.664 31.6833 10.1024 31.6367 8.20143 31.6357C6.09475 31.6346 5.83094 31.5955 4.92331 31.1504C3.92531 30.6609 3.14424 29.8799 2.67044 28.8979C2.23305 27.9914 2.27716 29.3266 2.26291 16.5588L2.25035 5.27758L5.19228 5.27653L8.13421 5.27547L9.28263 4.17458L10.4311 3.0737L5.21553 3.07167L0 3.06965L0.0132186 15.4088ZM40.208 3.1691L40.0791 3.21533V6.63951V10.0637L40.1994 10.1086C40.3722 10.1731 41.1128 10.1616 41.2396 10.0925C41.3201 10.0487 44.1272 6.0016 44.3681 5.582C44.3997 5.52699 44.4101 6.22506 44.4 7.72343C44.3871 9.63674 44.3947 9.95928 44.4548 10.0384C44.5181 10.1218 44.5792 10.1304 45.1072 10.1304C45.532 10.1304 45.7106 10.1133 45.7671 10.0673C45.838 10.0097 45.8447 9.71117 45.8447 6.61039V3.21666L45.6971 3.16615C45.5167 3.10447 44.8627 3.09955 44.7042 3.15865C44.6257 3.18796 44.3151 3.60268 43.7309 4.45812C42.6423 6.05234 41.7192 7.41611 41.5884 7.62352L41.4869 7.78451L41.4862 5.50059L41.4854 3.21666L41.3377 3.16615C41.1561 3.10401 40.384 3.10603 40.208 3.1691ZM47.2805 3.169C47.1551 3.21555 47.1478 3.23184 47.1731 3.4088C47.2114 3.67701 47.733 5.18384 47.9245 5.57961C48.1198 5.98302 48.3584 6.25078 48.6435 6.3862L48.8581 6.48818L48.6462 6.59388C48.0961 6.86826 47.8328 7.30442 47.3011 8.82266C46.932 9.87635 46.9052 10.0397 47.0899 10.1086C47.2653 10.1741 48.1879 10.1638 48.329 10.0948C48.4458 10.0377 48.5283 9.82184 48.9921 8.3595C49.2705 7.48147 49.6253 7.15502 50.312 7.14485L50.6024 7.14053L50.6148 8.57734L50.6272 10.0142L50.7419 10.0879C50.8902 10.1833 51.8322 10.1673 51.9548 10.0673C52.0237 10.0111 52.0321 9.84562 52.0321 8.55421V7.10419L52.3587 7.13105C53.2106 7.20116 53.3749 7.43396 54.0014 9.45785C54.0959 9.7631 54.1906 9.97584 54.2641 10.048C54.3761 10.1579 54.3943 10.1603 54.9886 10.1456C55.6302 10.1297 55.686 10.1102 55.6876 9.90165C55.6886 9.77644 55.0566 7.99795 54.8659 7.58952C54.6016 7.0231 54.4533 6.85649 53.9368 6.54535L53.8025 6.46449L54.0379 6.33256C54.3376 6.16458 54.5663 5.88987 54.766 5.45813C54.9723 5.01199 55.5126 3.41643 55.4923 3.31316C55.4644 3.17121 55.266 3.11698 54.7743 3.11698C54.3028 3.11698 54.1172 3.16335 54.0426 3.29964C54.0218 3.33759 53.8885 3.74721 53.7464 4.20991C53.6043 4.67261 53.4485 5.13835 53.4003 5.24488C53.1961 5.69571 52.8788 5.91126 52.356 5.95427L52.0321 5.9809V4.62288C52.0321 3.42834 52.023 3.25746 51.9563 3.20318C51.853 3.11905 51.0177 3.08786 50.7955 3.15985L50.6273 3.21431L50.6149 4.57946L50.6024 5.94456L50.2657 5.93555C49.7364 5.92138 49.4438 5.7269 49.2374 5.2521C49.194 5.15228 49.0365 4.66907 48.8875 4.17835C48.7385 3.68764 48.5828 3.25295 48.5416 3.21238C48.483 3.15484 48.3511 3.13648 47.9408 3.12885C47.6495 3.12342 47.355 3.14131 47.2805 3.169ZM74.7428 3.14656C74.524 3.20488 74.5318 3.0765 74.5318 6.63454C74.5318 9.71052 74.5386 10.0097 74.6092 10.0673C74.692 10.1348 75.5224 10.185 75.7263 10.1348C75.9868 10.0706 75.9849 10.082 75.9849 8.53355V7.10424L76.3326 7.13004C77.1633 7.19173 77.3841 7.46372 77.9789 9.15766C78.1286 9.58403 78.2877 9.97731 78.3325 10.0316C78.406 10.1209 78.4677 10.1319 78.9689 10.1453C79.6562 10.1638 79.7818 10.1263 79.7818 9.90224C79.7818 9.72929 79.0369 7.84141 78.7875 7.38225C78.6281 7.08878 78.2804 6.71748 78.0675 6.61343C77.797 6.48128 77.7958 6.46803 78.0415 6.33031C78.5092 6.06821 78.7033 5.74065 79.2645 4.26561C79.5957 3.39504 79.61 3.33837 79.5268 3.22659C79.4713 3.15198 79.3883 3.13621 78.9796 3.12255C78.4591 3.10516 78.1705 3.16077 78.1179 3.28855C78.0997 3.33262 77.9612 3.72494 77.81 4.16046C77.2962 5.64033 77.0882 5.89015 76.3167 5.95363L75.9849 5.9809V4.64906C75.9849 3.57766 75.972 3.29992 75.9191 3.2288C75.8619 3.15217 75.7856 3.13915 75.3449 3.13096C75.0652 3.12581 74.7943 3.1328 74.7428 3.14656ZM81.0487 3.16486C80.985 3.1909 80.9167 3.23708 80.8971 3.26744C80.8774 3.2978 80.861 4.81819 80.8606 6.64604C80.8597 10.5581 80.7871 10.1534 81.4905 10.1534C81.7342 10.1534 81.9845 10.1307 82.0468 10.1028C82.1469 10.058 83.7375 7.78088 84.8723 6.05745C85.0554 5.77948 85.2136 5.54373 85.2239 5.53357C85.2342 5.52345 85.2363 6.52429 85.2285 7.75769C85.2154 9.82529 85.2206 10.0053 85.2943 10.0653C85.4064 10.1567 86.4831 10.1583 86.5948 10.0673C86.6656 10.0097 86.6723 9.71287 86.6723 6.63454C86.6723 3.55622 86.6656 3.25944 86.5948 3.20176C86.5396 3.15686 86.3711 3.13865 86.0101 3.13865C85.5641 3.13865 85.4923 3.14973 85.4136 3.23064C85.3151 3.33184 82.9625 6.76035 82.563 7.38483L82.313 7.77554V5.52023C82.313 3.48032 82.3056 3.25889 82.2356 3.20176C82.1398 3.12356 81.2196 3.09495 81.0487 3.16486ZM88.4301 3.14656C88.2114 3.20488 88.2191 3.07664 88.2198 6.62866C88.2203 8.66396 88.2381 10.0197 88.2649 10.0614C88.2989 10.1142 88.4298 10.1341 88.8215 10.1459C89.3289 10.1612 89.335 10.1601 89.4751 10.0309C89.5921 9.92299 92.0643 6.32585 92.4415 5.71457L92.555 5.53058L92.5785 7.78318L92.6019 10.0358L92.7191 10.0959C92.8006 10.1378 92.9981 10.1522 93.3675 10.1433C93.8303 10.1321 93.9073 10.1189 93.9652 10.0412C94.0645 9.90758 94.0644 3.36133 93.9651 3.22793C93.9061 3.1489 93.8392 3.13865 93.3829 3.13865C92.9123 3.13865 92.8577 3.14766 92.758 3.24187C92.698 3.29867 91.9843 4.32656 91.1722 5.52611C90.3601 6.72562 89.6851 7.70898 89.6723 7.71133C89.6594 7.71363 89.6551 6.72714 89.6627 5.51908C89.6745 3.65622 89.6663 3.30879 89.6086 3.23152C89.5488 3.15157 89.4783 3.13924 89.0322 3.13096C88.7526 3.12581 88.4816 3.1328 88.4301 3.14656ZM56.944 3.21031C56.9 3.23556 56.8421 3.33322 56.8154 3.42742C56.7479 3.66593 56.7492 9.60767 56.8168 9.84663C56.9022 10.1486 56.9366 10.1534 58.9825 10.1534C60.4557 10.1534 60.796 10.1418 60.8701 10.0885C60.9433 10.0361 60.9637 9.95459 60.9768 9.66305C60.9856 9.46475 60.9706 9.24552 60.9433 9.17597L60.8937 9.04948H59.5557H58.2177L58.2303 8.049L58.243 7.04853L59.3445 7.03662C60.3132 7.02613 60.4531 7.01532 60.5047 6.94729C60.5763 6.85267 60.5839 6.18339 60.5147 6.05653C60.4688 5.97235 60.4055 5.96756 59.3418 5.96756H58.2175L58.2302 5.10509L58.243 4.24261L59.5386 4.23038C60.6479 4.21994 60.843 4.20779 60.8952 4.14606C60.9813 4.04431 60.9829 3.33892 60.8974 3.23773C60.8394 3.16919 60.6441 3.16178 58.9286 3.16302C57.7501 3.1639 56.9937 3.18193 56.944 3.21031ZM62.3995 3.26809L62.2976 3.37457V6.64719V9.91986L62.3996 10.0131C62.5541 10.1544 62.7179 10.167 64.047 10.1401C65.357 10.1137 65.6335 10.0771 66.1954 9.85592C67.422 9.37326 67.843 7.80815 66.9953 6.88285C66.7942 6.66343 66.3209 6.38169 66.153 6.3816C66.0459 6.38151 66.0925 6.31288 66.2443 6.24691C66.4911 6.13969 66.7754 5.82327 66.8917 5.5263C66.9716 5.32248 66.9976 5.16263 66.996 4.8866C66.9919 4.20351 66.697 3.71367 66.1236 3.43731C65.6304 3.19969 65.3284 3.16335 63.8409 3.16243L62.5015 3.16164L62.3995 3.26809ZM65.021 4.27201C65.7467 4.51051 65.7604 5.60675 65.0417 5.92708C64.8914 5.99406 64.7335 6.01177 64.278 6.01255L63.7038 6.01356V5.11659V4.21961H64.2828C64.6012 4.21961 64.9334 4.24317 65.021 4.27201ZM65.2357 7.14044C65.5315 7.22664 65.6958 7.35171 65.8154 7.5817C66.0862 8.10264 65.9214 8.6629 65.4206 8.92445C65.2491 9.01401 65.1412 9.02721 64.4655 9.04143L63.7038 9.05739V8.06446V7.07153H64.3515C64.7904 7.07153 65.0755 7.09375 65.2357 7.14044ZM115.359 12.0513L115.195 12.1097L115.199 12.4183C115.209 13.2371 115.821 13.7092 116.956 13.7741C117.761 13.8201 118.443 13.6223 118.794 13.2409C119.087 12.9221 119.255 12.2806 119.087 12.1162C118.936 11.9679 118.158 11.9679 118.007 12.1162C117.969 12.1535 117.937 12.2394 117.937 12.3071C117.937 12.6188 117.562 12.9113 117.164 12.9113C116.783 12.9113 116.391 12.6316 116.391 12.3603C116.391 12.2906 116.352 12.187 116.305 12.1301C116.234 12.0432 116.164 12.0239 115.872 12.0098C115.664 11.9998 115.457 12.0166 115.359 12.0513ZM96.7503 14.1348C95.3676 14.426 94.493 15.4182 94.264 16.9551C94.1906 17.4479 94.2297 18.584 94.333 18.9622C94.6679 20.1873 95.3757 20.912 96.4938 21.1744C97.4407 21.3967 98.8512 21.152 99.3054 20.6866C99.4183 20.571 99.439 20.5065 99.4584 20.2098C99.4848 19.8058 99.4438 19.5425 99.3489 19.5067C99.3115 19.4926 99.1386 19.5633 98.9648 19.6638C98.3479 20.0205 97.8114 20.1402 97.2657 20.0431C96.2187 19.8568 95.7183 19.0051 95.7794 17.5132C95.8166 16.6046 96.0244 16.0513 96.4794 15.6499C96.8227 15.347 97.14 15.2467 97.6878 15.2679C98.0679 15.2827 98.1793 15.3064 98.4485 15.4304C98.622 15.5102 98.8579 15.639 98.9726 15.7164C99.0873 15.7939 99.2136 15.8573 99.2532 15.8573C99.3823 15.8573 99.4404 15.6651 99.4367 15.2498C99.4321 14.73 99.3622 14.6071 98.9531 14.4003C98.329 14.0848 97.476 13.982 96.7503 14.1348ZM40.4206 14.185C40.3634 14.1973 40.2632 14.2696 40.1979 14.3459L40.0791 14.4844V17.7919V21.0994L40.208 21.1348C40.3749 21.1805 41.0959 21.1805 41.2627 21.1348L41.3916 21.0994V18.2253C41.3916 16.6446 41.4086 15.3513 41.4293 15.3513C41.45 15.3513 41.5119 15.4807 41.5668 15.6388C41.686 15.9821 42.5036 18.3106 42.7337 18.9622C42.8231 19.2152 43.027 19.7948 43.1869 20.2502L43.4775 21.0781L43.665 21.139C43.7832 21.1773 44.0123 21.1943 44.2849 21.185C44.8112 21.1669 44.8402 21.1442 45.0374 20.5951C45.2403 20.0301 46.3746 16.9129 46.7737 15.8233C46.8686 15.5643 46.962 15.3522 46.9814 15.3518C47.0007 15.3515 47.0165 16.6321 47.0165 18.1976C47.0165 20.7882 47.0235 21.0495 47.094 21.107C47.18 21.1771 47.9732 21.197 48.2001 21.1348L48.329 21.0994V17.809C48.329 14.9678 48.3194 14.5005 48.2584 14.3847C48.1551 14.1886 47.9179 14.1421 47.1339 14.1641C46.1761 14.191 46.1151 14.2378 45.7357 15.2363C45.1099 16.8839 44.2861 19.0139 44.251 19.0755C44.2044 19.1572 44.2146 19.1798 43.8742 18.2492C43.0122 15.8935 42.5521 14.6737 42.4791 14.5507C42.4326 14.4724 42.3008 14.3573 42.1861 14.2949C41.9923 14.1895 41.9261 14.1808 41.251 14.172C40.8514 14.1669 40.4777 14.1727 40.4206 14.185ZM50.1337 14.2085C49.9167 14.3249 49.9228 14.225 49.9228 17.6621V20.9213L50.0378 21.0342L50.1529 21.1471H52.0752C54.3024 21.1471 54.0946 21.2036 54.0946 20.5982C54.0946 20.0143 54.1713 20.0432 52.6171 20.0432H51.3271L51.3398 19.0657L51.3524 18.0882L52.4606 18.0759C53.4199 18.0652 53.5774 18.0534 53.6325 17.9883C53.7192 17.8856 53.7188 17.1861 53.6319 17.0834C53.5776 17.0193 53.4148 17.0072 52.4606 16.9966L51.3524 16.9842V16.1333V15.2823L52.6481 15.2701C53.7813 15.2594 53.9517 15.2484 54.0074 15.1825C54.0507 15.1314 54.0711 14.9751 54.0711 14.6965C54.0711 14.3431 54.0584 14.2768 53.9802 14.2206C53.9052 14.1668 53.5672 14.1556 52.0583 14.1567C50.8239 14.1577 50.1969 14.1745 50.1337 14.2085ZM55.0438 14.1858C54.892 14.2459 54.9999 14.5158 55.62 15.6273C56.0547 16.4063 56.3762 16.9945 56.5379 17.3062L56.681 17.5822L55.7612 19.2382C55.1443 20.3488 54.8458 20.9311 54.8547 21.0065C54.8731 21.1616 55.0793 21.2064 55.6764 21.185C56.0784 21.1706 56.1716 21.153 56.2475 21.077C56.2974 21.027 56.6296 20.435 56.9859 19.7614C57.3421 19.0878 57.6547 18.531 57.6805 18.5241C57.7062 18.5172 58.0232 19.0734 58.3848 19.76C58.7465 20.4466 59.0792 21.0445 59.1241 21.0886C59.1894 21.1526 59.3103 21.1722 59.7271 21.1862C60.329 21.2065 60.6101 21.1491 60.6101 21.006C60.6101 20.8909 60.4954 20.6684 59.5483 18.9473L58.7808 17.5524L59.0795 17.0153C59.2438 16.7199 59.4998 16.2609 59.6483 15.9953C60.1747 15.054 60.429 14.5698 60.4692 14.4325C60.5399 14.1903 60.4534 14.1553 59.7842 14.1553C59.2247 14.1553 59.1949 14.1602 59.0962 14.267C59.0394 14.3284 58.7326 14.8874 58.4145 15.5091C58.0963 16.1308 57.8188 16.6291 57.7979 16.6164C57.7769 16.6037 57.4824 16.081 57.1434 15.4548C56.8043 14.8287 56.4835 14.2801 56.4305 14.2358C56.3488 14.1676 56.2404 14.1559 55.7183 14.159C55.3795 14.1609 55.076 14.173 55.0438 14.1858ZM63.4389 14.1995C63.3305 14.2441 63.2662 14.3892 62.9286 15.3513C62.8176 15.6675 62.4598 16.6818 62.1334 17.6052C61.1002 20.5282 60.9802 20.8838 60.9946 20.9809C61.0192 21.1481 61.2008 21.1984 61.7229 21.1825C62.0923 21.1712 62.2207 21.1503 62.2803 21.0918C62.3229 21.05 62.4668 20.6883 62.5999 20.288L62.8421 19.5602H64.1885H65.5349L65.8029 20.3404C66.0705 21.1192 66.0713 21.1208 66.2332 21.1607C66.3223 21.1827 66.6247 21.1939 66.905 21.1854C67.3418 21.1723 67.424 21.1576 67.4801 21.0822C67.5641 20.9693 67.578 21.0182 66.9809 19.3302C65.5455 15.2724 65.1959 14.3118 65.1311 14.2481C65.0744 14.1924 64.9067 14.1763 64.2999 14.1682C63.8819 14.1626 63.4944 14.1767 63.4389 14.1995ZM68.5436 14.2244L68.4381 14.2985V17.6752V21.0519L68.5401 21.1055C68.7819 21.2324 69.6813 21.2086 69.821 21.0716C69.8805 21.0132 69.8913 20.7802 69.8913 19.5562V18.1098L71.2155 18.122L72.5397 18.1342L72.5631 19.606L72.5865 21.0778L72.774 21.1397C73.0036 21.2154 73.7911 21.189 73.898 21.102C73.9607 21.0509 73.9693 20.6316 73.9693 17.6445V14.245L73.8491 14.2002C73.783 14.1755 73.5111 14.1553 73.2449 14.1553C72.5123 14.1553 72.5652 14.0439 72.5512 15.6154L72.5397 16.9145L71.2272 16.9245L69.9147 16.9346L69.8913 15.6162C69.8736 14.6224 69.8529 14.2831 69.807 14.238C69.7659 14.1977 69.5682 14.1738 69.1977 14.1643C68.7518 14.1529 68.6293 14.1642 68.5436 14.2244ZM75.6685 14.2028L75.5631 14.2444V17.671V21.0976L75.7606 21.1498C75.8692 21.1785 76.1257 21.1945 76.3305 21.1854C76.6997 21.1689 76.7043 21.1672 76.8592 20.9854C76.9779 20.8462 79.5578 17.0874 79.861 16.6118C79.9047 16.5433 79.9175 17.0228 79.9196 18.8118L79.9224 21.0994L80.0513 21.1348C80.2805 21.1977 81.1649 21.1772 81.2511 21.107C81.3219 21.0493 81.3286 20.7502 81.3286 17.6472C81.3286 14.3361 81.3263 14.2493 81.238 14.2029C81.0985 14.1297 80.2435 14.1422 80.132 14.2191C80.0812 14.2542 79.354 15.2868 78.5161 16.5139L76.9927 18.7448L76.9806 16.4948L76.9684 14.2447L76.8486 14.2C76.6994 14.1443 75.8113 14.1464 75.6685 14.2028ZM82.6732 14.2098L82.5412 14.257L82.5579 15.6436C82.5734 16.9244 82.5825 17.0531 82.6774 17.3292C82.8764 17.9083 83.2928 18.2962 83.9244 18.4912C84.2274 18.5847 84.3525 18.5942 85.2778 18.5942H86.2973V19.7984C86.2973 21.1567 86.2876 21.1194 86.6534 21.1732C86.9368 21.2149 87.5131 21.1765 87.6452 21.1072L87.7504 21.0519V17.6737V14.2954L87.6352 14.2214C87.542 14.1614 87.4163 14.1503 86.9751 14.1628C86.5005 14.1763 86.4216 14.1899 86.3637 14.2676C86.3096 14.3404 86.2973 14.639 86.2973 15.8854V17.4139L86.1526 17.4451C86.073 17.4623 85.7619 17.4763 85.4612 17.4763C84.6308 17.4764 84.2971 17.3301 84.0768 16.8692C83.9855 16.6784 83.9765 16.5686 83.9617 15.4579L83.9456 14.2536L83.802 14.2045C83.6221 14.143 82.8499 14.1466 82.6732 14.2098ZM89.5326 14.2144C89.2952 14.3323 89.2987 14.2808 89.298 17.6658C89.2973 20.9205 89.2989 20.9512 89.4807 21.0882C89.5363 21.1301 90.0364 21.1446 91.4595 21.1457C93.1749 21.147 93.3702 21.1396 93.4282 21.071C93.4721 21.0191 93.4925 20.8648 93.4925 20.5844C93.4925 20.231 93.4798 20.1646 93.4015 20.1084C93.3282 20.0559 93.062 20.0432 92.0305 20.0432H90.7504V19.0542V18.0652H91.8765H93.0027L93.0484 17.9472C93.0735 17.8823 93.0941 17.6974 93.0941 17.5362C93.0941 17.3751 93.0735 17.1901 93.0484 17.1252L93.0027 17.0072H91.8765H90.7504V16.1333V15.2593H92.0612H93.3721L93.4289 15.1558C93.4601 15.0989 93.4859 14.8925 93.4861 14.6973C93.4866 14.1128 93.6437 14.1552 91.4814 14.156C90.1057 14.1565 89.6199 14.1711 89.5326 14.2144ZM100.688 14.1873C100.499 14.2534 100.5 14.234 100.501 17.6255C100.501 19.4233 100.514 20.9409 100.53 20.9981C100.546 21.0582 100.61 21.1165 100.682 21.1361C100.892 21.194 101.732 21.1759 101.848 21.111L101.953 21.0519V19.6046V18.1572H102.226C102.642 18.1572 102.931 18.2602 103.156 18.4892C103.408 18.7455 103.511 18.9587 103.917 20.0662C104.102 20.5721 104.271 21.0135 104.292 21.0469C104.418 21.247 105.687 21.2383 105.765 21.0368C105.806 20.9335 105.733 20.7053 105.378 19.8132C104.771 18.2901 104.547 17.9282 104.029 17.6415L103.775 17.501L103.978 17.3855C104.089 17.3219 104.23 17.2263 104.291 17.1731C104.43 17.0507 104.703 16.6358 104.823 16.3643C105.046 15.8578 105.519 14.5896 105.545 14.4276C105.572 14.2649 105.563 14.2453 105.448 14.2023C105.278 14.1387 104.377 14.1425 104.232 14.2075C104.167 14.2363 104.101 14.2932 104.085 14.334C104.069 14.3749 103.919 14.7988 103.753 15.2759C103.422 16.2253 103.366 16.3491 103.158 16.6042C102.951 16.8562 102.696 16.9612 102.29 16.9612H101.953V15.6299C101.953 14.0304 102.012 14.1534 101.252 14.159C100.98 14.1609 100.726 14.1737 100.688 14.1873ZM106.981 14.2028L106.875 14.2444V17.6706V21.0968L107.051 21.1447C107.278 21.2065 107.807 21.2068 107.981 21.1452C108.056 21.1188 108.151 21.0516 108.192 20.9957C108.268 20.8922 111.071 16.7692 111.173 16.611C111.217 16.5432 111.23 17.0233 111.232 18.8118L111.234 21.0994L111.363 21.1348C111.593 21.1977 112.477 21.1772 112.563 21.107C112.634 21.0493 112.641 20.7502 112.641 17.6472C112.641 14.3361 112.638 14.2493 112.55 14.2029C112.411 14.1298 111.556 14.1422 111.444 14.219C111.393 14.2541 110.666 15.2878 109.828 16.5162L108.305 18.7496L108.293 16.4972L108.281 14.2447L108.161 14.2C108.011 14.1443 107.123 14.1464 106.981 14.2028ZM114.281 14.2473C114.189 14.3376 114.188 14.4006 114.188 17.671C114.188 20.5704 114.197 21.0115 114.258 21.0716C114.347 21.1592 114.777 21.2128 115.115 21.1785C115.302 21.1595 115.405 21.1223 115.479 21.0461C115.58 20.9425 118.339 16.9014 118.448 16.6968C118.478 16.6398 118.518 16.5933 118.537 16.5933C118.555 16.5932 118.564 17.5601 118.556 18.7418C118.548 19.9236 118.554 20.9371 118.568 20.9941C118.587 21.0687 118.65 21.1126 118.793 21.1504C119.034 21.214 119.748 21.1866 119.895 21.1082L120 21.0519V17.657V14.2621L119.881 14.2087C119.815 14.1793 119.562 14.1553 119.319 14.1553C118.901 14.1553 118.869 14.1622 118.74 14.2818C118.639 14.3756 116.1 18.0596 115.702 18.6897C115.658 18.7589 115.646 18.2869 115.643 16.5202L115.641 14.2621L115.521 14.2087C115.454 14.1786 115.178 14.1553 114.888 14.1553C114.438 14.1553 114.364 14.1665 114.281 14.2473ZM64.6781 16.958C64.9415 17.7405 65.1569 18.4029 65.1569 18.43C65.1569 18.4634 64.8397 18.4792 64.1692 18.4792C63.3521 18.4792 63.1839 18.4682 63.1965 18.4156C63.2465 18.2056 64.1522 15.5353 64.1734 15.5353C64.1876 15.5353 64.4147 16.1755 64.6781 16.958ZM41.3447 25.1307C40.633 25.2142 39.9264 25.4771 39.8114 25.701C39.7331 25.8536 39.7324 26.5325 39.8106 26.6373C39.8661 26.7119 39.8948 26.7063 40.2319 26.5556C40.7658 26.3168 41.1136 26.24 41.5557 26.2633C42.1678 26.2956 42.4734 26.5137 42.5427 26.9678C42.6073 27.3901 42.335 27.8307 41.9168 27.9809C41.7599 28.0373 41.4967 28.0662 41.004 28.0815C40.3656 28.1013 40.3062 28.1106 40.2422 28.2002C40.1543 28.3235 40.1463 28.962 40.2315 29.0689C40.2793 29.1291 40.423 29.1463 41.0166 29.1629C41.8251 29.1854 42.1547 29.2682 42.3883 29.5075C42.6568 29.7827 42.7338 30.2487 42.5686 30.5999C42.3763 31.0087 41.9958 31.1933 41.3447 31.1936C40.8646 31.1937 40.479 31.0991 40.0521 30.8763C39.7713 30.7298 39.7136 30.7314 39.6514 30.8873C39.5812 31.0637 39.6296 31.7015 39.7239 31.8428C39.8218 31.9895 40.078 32.1151 40.5327 32.2397C40.8265 32.3202 41.0206 32.3397 41.5088 32.3379C42.8491 32.333 43.7317 31.9131 44.1232 31.0939C44.2502 30.8282 44.2741 30.7201 44.29 30.3381C44.3037 30.0074 44.2887 29.8351 44.2319 29.6711C44.0566 29.1647 43.6178 28.7487 43.114 28.6113L42.8389 28.5362L43.0854 28.446C43.2528 28.3847 43.4255 28.2656 43.6235 28.0748C43.8803 27.8274 43.9274 27.7535 44.0189 27.455C44.1033 27.1798 44.1183 27.0442 44.0986 26.7349C44.0474 25.9287 43.6141 25.4359 42.7635 25.2165C42.4905 25.1461 41.6476 25.0951 41.3447 25.1307ZM60.9851 25.1535C59.6496 25.3535 58.7147 26.1864 58.3534 27.4979C58.2594 27.8396 58.2464 27.9959 58.2448 28.8059C58.2428 29.7921 58.2903 30.1127 58.5204 30.6685C58.6652 31.0183 58.9644 31.4453 59.2139 31.6584C59.4879 31.8925 60.0913 32.1716 60.5164 32.261C61.045 32.3722 62.073 32.3595 62.5527 32.236C63.7467 31.9283 64.5064 31.1497 64.8088 29.9237C64.9284 29.4389 64.9748 28.6887 64.9213 28.1056C64.8269 27.0783 64.5855 26.4771 64.0555 25.9489C63.6795 25.5742 63.3195 25.3746 62.7749 25.2387C62.3462 25.1317 61.4236 25.0878 60.9851 25.1535ZM47.3144 25.2244C47.111 25.2683 47.1444 25.1886 46.1795 27.9319C45.9482 28.5897 45.5758 29.6454 45.3519 30.2779C44.6969 32.129 44.7091 32.0828 44.8441 32.1927C44.946 32.2756 45.8701 32.2802 46.0164 32.1985C46.0921 32.1562 46.1821 31.9524 46.3718 31.3938L46.6259 30.6459H47.978H49.3301L49.5696 31.3704C49.7013 31.7689 49.8399 32.1251 49.8776 32.162C49.9636 32.2461 50.6086 32.303 50.9712 32.2586C51.3068 32.2174 51.3606 32.1389 51.2647 31.8301C51.2274 31.7101 51.0348 31.1564 50.8366 30.5999C50.6385 30.0433 50.2901 29.06 50.0622 28.4149C48.9943 25.3912 48.9623 25.3077 48.8527 25.26C48.7636 25.2213 47.4679 25.1914 47.3144 25.2244ZM52.403 25.2976C52.3621 25.3297 52.3041 25.4012 52.2741 25.4565C52.1985 25.5959 52.1961 31.8558 52.2716 32.0186C52.3632 32.2157 52.4805 32.2329 53.7335 32.2319C55.2962 32.2307 55.8092 32.1511 56.4149 31.816C57.1762 31.3946 57.5556 30.4517 57.3015 29.6122C57.153 29.1214 56.7712 28.7186 56.2918 28.5471L56.0174 28.4489L56.2168 28.3248C56.7444 27.9964 56.9874 27.506 56.9422 26.8603C56.8874 26.074 56.4618 25.6027 55.5714 25.3421C55.2479 25.2474 52.5158 25.209 52.403 25.2976ZM67.302 25.2904C67.1563 25.3737 67.1251 25.5006 66.9834 26.5857C66.6706 28.9801 66.3947 30.0863 65.9278 30.8183C65.7632 31.0764 65.754 31.0828 65.5487 31.0828C65.133 31.0828 65.1569 30.9913 65.1569 32.5806V33.9831L65.2772 34.0279C65.3433 34.0526 65.574 34.0728 65.7897 34.0728C66.0055 34.0728 66.2362 34.0526 66.3023 34.0279L66.4225 33.9831V33.1079V32.2328H68.7897H71.1569V33.0812C71.1569 34.1123 71.1311 34.0728 71.8032 34.0728C72.0441 34.0728 72.2819 34.0513 72.3318 34.0251C72.4184 33.9797 72.4225 33.9149 72.4225 32.6063C72.4225 30.9848 72.4566 31.0828 71.8914 31.0828H71.5319V28.2573V25.4317L71.4083 25.3364C71.2878 25.2433 71.2377 25.2411 69.3342 25.2424C68.1053 25.2433 67.3533 25.261 67.302 25.2904ZM62.321 26.3808C63.1054 26.681 63.4226 27.3547 63.4226 28.7204C63.4226 29.8714 63.159 30.5469 62.5658 30.916C62.263 31.1043 61.982 31.175 61.5386 31.1743C60.5048 31.1726 59.9804 30.7012 59.7841 29.5972C59.6936 29.0882 59.7187 28.0766 59.8319 27.6691C60.0466 26.8963 60.5272 26.4173 61.2069 26.2986C61.5004 26.2473 62.0851 26.2904 62.321 26.3808ZM54.9428 26.3695C55.3304 26.5037 55.5008 26.7562 55.5008 27.1963C55.5008 27.607 55.2704 27.9535 54.9344 28.048C54.8467 28.0727 54.5163 28.0929 54.2004 28.0929H53.6258V27.196V26.299H54.1824C54.5628 26.299 54.8035 26.3213 54.9428 26.3695ZM70.1256 28.739V31.0828H68.696C67.9096 31.0828 67.2663 31.072 67.2663 31.0589C67.2663 31.0457 67.3205 30.9545 67.3868 30.8562C67.761 30.3013 68.0533 29.1858 68.3216 27.2885C68.3895 26.8082 68.4625 26.4045 68.4838 26.3916C68.5051 26.3786 68.8832 26.3741 69.3241 26.3816L70.1256 26.3952V28.739ZM48.4653 28.0429C48.7255 28.8249 48.9384 29.4873 48.9384 29.5148C48.9384 29.5752 47.0357 29.5865 46.9978 29.5263C46.9686 29.4799 47.9164 26.621 47.961 26.621C47.9782 26.621 48.2051 27.2608 48.4653 28.0429ZM55.129 29.2243C55.6293 29.3686 55.8737 29.6767 55.8737 30.1629C55.8737 30.622 55.6364 30.945 55.1961 31.0851C55.0804 31.1219 54.7485 31.1461 54.3289 31.1483L53.6493 31.1518L53.6366 30.1514L53.624 29.1509H54.2492C54.6841 29.1509 54.9519 29.1733 55.129 29.2243Z" fill="#292927"/>
</svg>
