<svg width="60" height="60" viewBox="0 0 60 60" fill="none" xmlns="http://www.w3.org/2000/svg">
<rect width="60" height="60" fill="#983031"/>
<path d="M20.4453 30.9453H17.5469V29.1172H20.4453C20.8932 29.1172 21.2578 29.0443 21.5391 28.8984C21.8203 28.7474 22.026 28.5391 22.1562 28.2734C22.2865 28.0078 22.3516 27.7083 22.3516 27.375C22.3516 27.0365 22.2865 26.7214 22.1562 26.4297C22.026 26.138 21.8203 25.9036 21.5391 25.7266C21.2578 25.5495 20.8932 25.4609 20.4453 25.4609H18.3594V35H16.0156V23.625H20.4453C21.3359 23.625 22.099 23.7865 22.7344 24.1094C23.375 24.4271 23.8646 24.8672 24.2031 25.4297C24.5417 25.9922 24.7109 26.6354 24.7109 27.3594C24.7109 28.0938 24.5417 28.7292 24.2031 29.2656C23.8646 29.8021 23.375 30.2161 22.7344 30.5078C22.099 30.7995 21.3359 30.9453 20.4453 30.9453ZM29.8203 35H27.3438L27.3594 33.1719H29.8203C30.4349 33.1719 30.9531 33.0339 31.375 32.7578C31.7969 32.4766 32.1146 32.0677 32.3281 31.5312C32.5469 30.9948 32.6562 30.3464 32.6562 29.5859V29.0312C32.6562 28.4479 32.5938 27.9349 32.4688 27.4922C32.349 27.0495 32.1693 26.6771 31.9297 26.375C31.6901 26.0729 31.3958 25.8464 31.0469 25.6953C30.6979 25.5391 30.2969 25.4609 29.8438 25.4609H27.2969V23.625H29.8438C30.6042 23.625 31.2995 23.7552 31.9297 24.0156C32.5651 24.2708 33.1146 24.638 33.5781 25.1172C34.0417 25.5964 34.3984 26.1693 34.6484 26.8359C34.9036 27.4974 35.0312 28.2344 35.0312 29.0469V29.5859C35.0312 30.3932 34.9036 31.1302 34.6484 31.7969C34.3984 32.4635 34.0417 33.0365 33.5781 33.5156C33.1198 33.9896 32.5703 34.3568 31.9297 34.6172C31.2943 34.8724 30.5911 35 29.8203 35ZM28.6719 23.625V35H26.3281V23.625H28.6719ZM39.0781 23.625V35H36.7344V23.625H39.0781ZM43.6094 28.4844V30.3125H38.4375V28.4844H43.6094ZM44.1562 23.625V25.4609H38.4375V23.625H44.1562Z" fill="white"/>
<path d="M60 16L44 16L44 -4.4509e-07L60 16Z" fill="#B74142"/>
<path d="M44 0L60 -2.79753e-06L60 16L44 0Z" fill="#FBF7F1"/>
</svg>
