<svg width="24" height="25" viewBox="0 0 24 25" fill="none" xmlns="http://www.w3.org/2000/svg">
<path fill-rule="evenodd" clip-rule="evenodd" d="M10.8561 8.83623C11.3744 8.13769 11.5603 7.40148 10.9741 6.75164C9.6585 4.91079 8.77374 3.77241 8.21877 3.22419C7.16371 2.18196 5.42811 2.32294 4.51435 3.2233C4.02356 3.70689 3.85741 3.87296 3.35348 4.38482C0.54649 7.19331 2.25834 13.1304 6.80904 17.6856C11.3587 22.2397 17.2952 23.9525 20.1081 21.138C20.5731 20.6897 20.9668 20.2958 21.2773 19.9676C22.1728 19.0211 22.3088 17.3621 21.2715 16.2843C20.7396 15.7317 19.6541 14.8897 17.7358 13.5175C17.1483 12.9921 16.4516 13.106 15.813 13.525C15.5058 13.7265 15.2822 13.9304 14.86 14.353L14.0934 15.12C13.9925 15.2211 12.6214 14.5344 11.2905 13.2022C9.95887 11.8693 9.27272 10.4982 9.37322 10.3977L10.1404 9.63013C10.2743 9.49606 10.3383 9.43115 10.4205 9.34484C10.5915 9.16502 10.7332 9.00184 10.8561 8.83623ZM15.5076 16.5349L16.2743 15.7677C16.5067 15.5352 16.6573 15.3922 16.7797 15.2936C18.4602 16.5004 19.4334 17.2592 19.831 17.6722C20.0696 17.9202 20.0325 18.3727 19.8251 18.592C19.5379 18.8955 19.1649 19.2688 18.7071 19.7103C16.8882 21.53 12.0961 20.1474 8.22351 16.271C4.34968 12.3933 2.96776 7.60053 4.77293 5.79437C5.27483 5.28462 5.43385 5.12568 5.91763 4.64899C6.09903 4.47026 6.59312 4.43012 6.81378 4.6481C7.24105 5.07017 8.03363 6.08501 9.19955 7.70912C9.13919 7.78406 9.0638 7.86874 8.97206 7.96516C8.90473 8.03592 8.84863 8.09279 8.72599 8.21555L7.95961 8.98235C6.65584 10.286 7.76618 12.5048 9.87614 14.6168C11.9846 16.7274 14.2042 17.839 15.5076 16.5349Z" fill="white"/>
</svg>
