<svg width="14" height="14" viewBox="0 0 14 14" fill="none" xmlns="http://www.w3.org/2000/svg">
<path fill-rule="evenodd" clip-rule="evenodd" d="M4.04651 3.4098C4.08784 3.35235 4.13374 3.28201 4.19227 3.18717C4.21365 3.15253 4.27193 3.05639 4.31534 2.98476L4.31542 2.98463L4.3643 2.90407C4.84788 2.11306 5.1994 1.75 5.83325 1.75H8.16659C8.80044 1.75 9.15196 2.11306 9.63553 2.90407L9.68444 2.98466L9.68458 2.9849C9.72798 3.05651 9.7862 3.15255 9.80756 3.18717C9.8661 3.28201 9.912 3.35235 9.95333 3.4098C9.98058 3.44769 10.0044 3.4778 10.0238 3.5H11.6666C12.6331 3.5 13.4166 4.2835 13.4166 5.25V10.5C13.4166 11.4665 12.6331 12.25 11.6666 12.25H2.33325C1.36675 12.25 0.583252 11.4665 0.583252 10.5V5.25C0.583252 4.2835 1.36675 3.5 2.33325 3.5H3.97603C3.99545 3.4778 4.01926 3.44769 4.04651 3.4098ZM2.33325 4.66667C2.01109 4.66667 1.74992 4.92783 1.74992 5.25V10.5C1.74992 10.8222 2.01109 11.0833 2.33325 11.0833H11.6666C11.9888 11.0833 12.2499 10.8222 12.2499 10.5V5.25C12.2499 4.92783 11.9888 4.66667 11.6666 4.66667H9.91658C9.52905 4.66667 9.2677 4.45457 9.00623 4.09107C8.94607 4.00743 8.88647 3.9161 8.81474 3.79989C8.79023 3.76017 8.72667 3.6553 8.6829 3.58308L8.68252 3.58245L8.64014 3.51259C8.37629 3.081 8.21718 2.91667 8.16658 2.91667H5.83325C5.78266 2.91667 5.62354 3.081 5.3597 3.51259L5.31727 3.58253C5.27348 3.65477 5.20967 3.76007 5.18509 3.79989C5.11337 3.9161 5.05377 4.00743 4.99361 4.09107C4.73213 4.45457 4.47078 4.66667 4.08325 4.66667H2.33325ZM11.6666 5.83333C11.6666 6.1555 11.4054 6.41667 11.0833 6.41667C10.7611 6.41667 10.4999 6.1555 10.4999 5.83333C10.4999 5.51117 10.7611 5.25 11.0833 5.25C11.4054 5.25 11.6666 5.51117 11.6666 5.83333ZM4.08325 7.58333C4.08325 9.19416 5.38909 10.5 6.99992 10.5C8.61075 10.5 9.91659 9.19416 9.91659 7.58333C9.91659 5.9725 8.61075 4.66667 6.99992 4.66667C5.38909 4.66667 4.08325 5.9725 4.08325 7.58333ZM8.74992 7.58333C8.74992 8.54983 7.96642 9.33333 6.99992 9.33333C6.03342 9.33333 5.24992 8.54983 5.24992 7.58333C5.24992 6.61684 6.03342 5.83333 6.99992 5.83333C7.96642 5.83333 8.74992 6.61684 8.74992 7.58333Z" fill="white"/>
</svg>
