<svg width="12" height="9" viewBox="0 0 12 9" fill="none" xmlns="http://www.w3.org/2000/svg">
<path fill-rule="evenodd" clip-rule="evenodd" d="M5.99977 0.333008C7.36354 0.333008 8.66761 1.04832 9.88291 2.22358C10.2975 2.62453 10.6726 3.05259 11.0028 3.48082C11.2021 3.73923 11.3435 3.94251 11.421 4.06361L11.5933 4.33301L11.421 4.60241C11.3435 4.72351 11.2021 4.92679 11.0028 5.1852C10.6726 5.61343 10.2975 6.04148 9.88291 6.44243C8.66761 7.6177 7.36354 8.33301 5.99977 8.33301C4.63599 8.33301 3.33193 7.6177 2.11662 6.44243C1.70201 6.04148 1.32692 5.61343 0.996722 5.1852C0.797471 4.92679 0.656004 4.72351 0.57855 4.60241L0.40625 4.33301L0.57855 4.06361C0.656004 3.94251 0.797471 3.73923 0.996722 3.48082C1.32692 3.05259 1.70201 2.62453 2.11662 2.22358C3.33193 1.04832 4.63599 0.333008 5.99977 0.333008ZM10.2109 4.09145C9.90857 3.69937 9.56485 3.30711 9.18775 2.94243C8.14102 1.9302 7.05231 1.33301 5.99977 1.33301C4.94723 1.33301 3.85851 1.9302 2.81179 2.94243C2.43469 3.30711 2.09096 3.69937 1.78864 4.09145C1.72335 4.17613 1.66301 4.25692 1.60785 4.33301C1.66301 4.4091 1.72335 4.48989 1.78864 4.57457C2.09096 4.96665 2.43469 5.35891 2.81179 5.72358C3.85851 6.73582 4.94723 7.33301 5.99977 7.33301C7.05231 7.33301 8.14102 6.73582 9.18775 5.72358C9.56485 5.35891 9.90857 4.96665 10.2109 4.57457C10.2762 4.48989 10.3365 4.4091 10.3917 4.33301C10.3365 4.25692 10.2762 4.17613 10.2109 4.09145ZM3.99977 4.33301C3.99977 5.43758 4.8952 6.33301 5.99977 6.33301C7.10434 6.33301 7.99977 5.43758 7.99977 4.33301C7.99977 3.22844 7.10434 2.33301 5.99977 2.33301C4.8952 2.33301 3.99977 3.22844 3.99977 4.33301ZM6.99977 4.33301C6.99977 4.88529 6.55205 5.33301 5.99977 5.33301C5.44748 5.33301 4.99977 4.88529 4.99977 4.33301C4.99977 3.78072 5.44748 3.33301 5.99977 3.33301C6.55205 3.33301 6.99977 3.78072 6.99977 4.33301Z" fill="#BF9D77"/>
</svg>
