<svg width="12" height="12" viewBox="0 0 12 12" fill="none" xmlns="http://www.w3.org/2000/svg">
<path fill-rule="evenodd" clip-rule="evenodd" d="M5.42679 4.16895C5.68584 3.81985 5.77874 3.45192 5.48576 3.12715C4.82828 2.20717 4.38611 1.63825 4.10876 1.36427C3.58148 0.843402 2.71409 0.913857 2.25743 1.36382C2.01215 1.6055 1.92912 1.6885 1.67727 1.9443C0.274443 3.34788 1.12996 6.315 3.40423 8.59151C5.67799 10.8675 8.64482 11.7235 10.0506 10.3169C10.283 10.0929 10.4798 9.89601 10.6349 9.73199C11.0825 9.25899 11.1504 8.42986 10.632 7.89121C10.3662 7.61505 9.8237 7.19423 8.865 6.50847C8.57138 6.24591 8.22324 6.30282 7.90405 6.51222C7.75052 6.61295 7.63879 6.71484 7.42781 6.92603L7.04469 7.30936C6.99422 7.35985 6.30903 7.01671 5.64389 6.35092C4.97839 5.68477 4.63548 4.99953 4.68571 4.94931L5.06909 4.56571C5.13603 4.49871 5.16803 4.46627 5.20907 4.42314C5.29458 4.33327 5.36537 4.25172 5.42679 4.16895ZM7.7514 8.01647L8.1346 7.63306C8.25071 7.51683 8.32597 7.44537 8.38718 7.3961C9.22701 7.9992 9.7134 8.37842 9.91206 8.58485C10.0313 8.70878 10.0128 8.93493 9.90912 9.04452C9.76562 9.19619 9.57919 9.38273 9.35041 9.6034C8.44139 10.5128 6.04648 9.82184 4.1111 7.88455C2.17511 5.94666 1.48448 3.5514 2.38663 2.64874C2.63747 2.39399 2.71694 2.31456 2.95871 2.07633C3.04937 1.987 3.2963 1.96695 3.40657 2.07588C3.62011 2.28682 4.01621 2.79399 4.59889 3.60567C4.56872 3.64311 4.53105 3.68544 4.4852 3.73362C4.45155 3.76899 4.42351 3.79741 4.36222 3.85876L3.97922 4.24198C3.32764 4.8935 3.88255 6.00236 4.93702 7.05787C5.99078 8.11266 7.10005 8.66818 7.7514 8.01647Z" fill="#BF9D77"/>
</svg>
