<svg width="21" height="21" viewBox="0 0 21 21" fill="none" xmlns="http://www.w3.org/2000/svg">
<path fill-rule="evenodd" clip-rule="evenodd" d="M9.85749 7.29542C10.3756 6.59721 10.5614 5.86136 9.97542 5.21183C8.66046 3.37185 7.77612 2.23401 7.22142 1.68606C6.16686 0.644323 4.43209 0.785234 3.51877 1.68517C3.02821 2.16853 2.86214 2.33452 2.35844 2.84613C-0.447208 5.65329 1.26382 11.5875 5.81237 16.1405C10.3599 20.6925 16.2935 22.4045 19.1051 19.5914C19.5699 19.1433 19.9634 18.7495 20.2738 18.4215C21.1688 17.4755 21.3047 15.8172 20.2679 14.7399C19.7363 14.1876 18.6513 13.346 16.7339 11.9745C16.1467 11.4493 15.4504 11.5632 14.812 11.982C14.5049 12.1834 14.2815 12.3872 13.8595 12.8096L13.0933 13.5762C12.9924 13.6772 11.622 12.9909 10.2917 11.6594C8.96069 10.3271 8.27487 8.95658 8.37532 8.85614L9.1421 8.08894C9.27597 7.95494 9.33997 7.89006 9.42206 7.80379C9.59306 7.62406 9.73465 7.46096 9.85749 7.29542ZM14.5067 14.9905L15.2731 14.2236C15.5053 13.9912 15.6558 13.8483 15.7783 13.7497C17.4579 14.9559 18.4307 15.7144 18.828 16.1272C19.0666 16.3751 19.0295 16.8274 18.8221 17.0466C18.5352 17.3499 18.1623 17.723 17.7047 18.1643C15.8867 19.9831 11.0969 18.6012 7.22611 14.7266C3.35412 10.8508 1.97286 6.06031 3.77717 4.255C4.27884 3.7455 4.43778 3.58664 4.92133 3.11017C5.10264 2.93153 5.5965 2.89141 5.81705 3.10928C6.24412 3.53116 7.03632 4.54551 8.20168 6.16885C8.14136 6.24375 8.06601 6.32839 7.97431 6.42476C7.90701 6.4955 7.85094 6.55233 7.72836 6.67503L6.96234 7.44148C5.65919 8.74452 6.769 10.9622 8.87795 13.0733C10.9855 15.1828 13.204 16.2939 14.5067 14.9905Z" fill="white"/>
</svg>
