<svg width="16" height="16" viewBox="0 0 16 16" fill="none" xmlns="http://www.w3.org/2000/svg">
<path fill-rule="evenodd" clip-rule="evenodd" d="M7.47515 5.25318C7.86373 4.72953 8.00307 4.17764 7.56359 3.69049C6.57738 2.3105 5.91412 1.45713 5.4981 1.04616C4.70718 0.264859 3.4061 0.370542 2.72111 1.04549C2.35319 1.40801 2.22863 1.5325 1.85086 1.91621C-0.253374 4.02158 1.0299 8.47226 4.44131 11.887C7.85194 15.301 12.3022 16.585 14.4108 14.4751C14.7594 14.1391 15.0546 13.8438 15.2874 13.5977C15.9586 12.8882 16.0606 11.6445 15.283 10.8366C14.8843 10.4223 14.0705 9.7911 12.6325 8.76246C12.192 8.36863 11.6698 8.45398 11.191 8.76809C10.9607 8.91918 10.7931 9.07202 10.4767 9.3888L9.90199 9.9638C9.8263 10.0395 8.7985 9.52481 7.8008 8.52613C6.80255 7.5269 6.28819 6.49905 6.36352 6.42372L6.9386 5.84832C7.03901 5.74782 7.08701 5.69916 7.14857 5.63446C7.27683 5.49966 7.38302 5.37733 7.47515 5.25318ZM10.9616 11.0243L11.5364 10.4492C11.7105 10.2749 11.8234 10.1677 11.9153 10.0938C13.175 10.9984 13.9046 11.5672 14.2026 11.8769C14.3815 12.0628 14.3537 12.402 14.1982 12.5664C13.9829 12.7939 13.7033 13.0737 13.3601 13.4047C11.9966 14.7688 8.4042 13.7324 5.50113 10.8264C2.59714 7.9196 1.56119 4.32671 2.91443 2.97273C3.29067 2.5906 3.40988 2.47145 3.77254 2.1141C3.90852 1.98012 4.27892 1.95003 4.44433 2.11344C4.76464 2.42984 5.35878 3.19061 6.23281 4.40811C6.18756 4.46429 6.13105 4.52777 6.06228 4.60005C6.0118 4.6531 5.96975 4.69572 5.87781 4.78775L5.3033 5.36258C4.32594 6.33986 5.15829 8.00315 6.74001 9.58642C8.32064 11.1686 9.98455 12.0019 10.9616 11.0243Z" fill="#BF9D77"/>
</svg>
