<svg width="20" height="21" viewBox="0 0 20 21" fill="none" xmlns="http://www.w3.org/2000/svg">
<path fill-rule="evenodd" clip-rule="evenodd" d="M18 0.5H2C0.89543 0.5 0 1.39543 0 2.5V18.5C0 19.6046 0.89543 20.5 2 20.5H18C19.1046 20.5 20 19.6046 20 18.5V2.5C20 1.39543 19.1046 0.5 18 0.5ZM2 18.5V14.5H6V18.5H2ZM8 18.5H12V14.5H8V18.5ZM8 12.5H12V8.5H8V12.5ZM8 6.5H12V2.5H8V6.5ZM6 2.5V6.5H2V2.5H6ZM6 8.5V12.5H2V8.5H6ZM14 18.5V14.5H18V18.5H14ZM14 8.5V12.5H18V8.5H14ZM18 6.5H14V2.5H18V6.5Z" fill="white"/>
</svg>
