<svg width="151" height="8" viewBox="0 0 151 8" fill="none" xmlns="http://www.w3.org/2000/svg">
<path opacity="0.5" d="M0.333333 4C0.333333 5.47276 1.52724 6.66667 3 6.66667C4.47276 6.66667 5.66667 5.47276 5.66667 4C5.66667 2.52724 4.47276 1.33333 3 1.33333C1.52724 1.33333 0.333333 2.52724 0.333333 4ZM150.496 4.35355C150.692 4.15829 150.692 3.84171 150.496 3.64645L147.314 0.464466C147.119 0.269204 146.803 0.269204 146.607 0.464466C146.412 0.659728 146.412 0.976311 146.607 1.17157L149.436 4L146.607 6.82843C146.412 7.02369 146.412 7.34027 146.607 7.53553C146.803 7.7308 147.119 7.7308 147.314 7.53553L150.496 4.35355ZM3 4.5H150.143V3.5H3V4.5Z" fill="#BF9D77"/>
</svg>
