<svg width="7" height="12" viewBox="0 0 7 12" fill="none" xmlns="http://www.w3.org/2000/svg">
<path d="M5.49866 6.52798H4.6797C3.39284 6.52798 2.14492 5.76009 2.14492 3.83991C2.14492 1.84006 3.31494 1.02401 4.50417 1.02401H5.49866V6.52798ZM6.78552 -4.76837e-07H4.56286C2.37861 -4.76837e-07 0.526742 1.36023 0.526742 4.00015C0.526742 5.58409 1.4236 6.75213 3.02257 7.32784L0.0391004 11.7439C-0.0585347 11.8879 0.0391003 12 0.19489 12H1.57939C1.69623 12 1.77466 11.968 1.8136 11.8879L4.52391 7.55199H5.49866V11.8879C5.49866 11.9361 5.55735 12 5.63524 12H6.84421C6.96105 12 7 11.9518 7 11.8722V0.159796C7 0.0481577 6.9221 -4.76837e-07 6.78552 -4.76837e-07Z" fill="white"/>
</svg>
